<svg xmlns="http://www.w3.org/2000/svg" viewBox="0 0 65.69 65.06"><defs><style>.cls-1{fill:none;stroke:#1d1d1b;stroke-miterlimit:10;}.cls-2{fill:#787bba;}</style></defs><g id="Layer_2" data-name="Layer 2"><g id="Layer_1-2" data-name="Layer 1"><polyline class="cls-1" points="8.87 39.6 8.87 1.44 21.61 1.44 21.61 38.08"/><polyline class="cls-1" points="8.87 25.55 11.62 25.55 14.36 25.55"/><polyline class="cls-1" points="8.87 17.6 11.62 17.6 14.36 17.6"/><polyline class="cls-1" points="8.87 9.65 11.62 9.65 14.36 9.65"/><polyline class="cls-1" points="28.54 29.14 28.54 13.81 41.63 13.81 41.63 27.29"/><polyline class="cls-1" points="28.55 13.81 35.09 1.14 41.63 13.81"/><polyline class="cls-1" points="51.97 38.24 51.97 22.23 61.6 22.23 61.6 48.33"/><path class="cls-1" d="M60.16,22.23A8.43,8.43,0,0,0,63.41,9.34a33.72,33.72,0,0,1-2.89-4.11L58.29,1.37a1.74,1.74,0,0,0-3,0L53.09,5.16a30.64,30.64,0,0,1-2.82,4.06,8.41,8.41,0,0,0,3.15,13"/><path class="cls-2" d="M54.05,40.76a12.68,12.68,0,0,1,2.85,24.3H8.36A14.86,14.86,0,0,1,20.2,37.82a17.17,17.17,0,0,1,33.85,2.94Z"/></g></g></svg>