<svg xmlns="http://www.w3.org/2000/svg" viewBox="0 0 116.86 80.9"><defs><style>.cls-1,.cls-3{fill:none;}.cls-1,.cls-3,.cls-5{stroke:#1d1d1b;stroke-miterlimit:10;}.cls-2{fill:#787bba;}.cls-3{stroke-linecap:round;}.cls-4,.cls-5{fill:#fff;}</style></defs><g id="Layer_2" data-name="Layer 2"><g id="Layer_1-2" data-name="Layer 1"><rect class="cls-1" x="0.5" y="12.87" width="91.81" height="57.82" rx="1.31"/><line class="cls-1" x1="92.31" y1="25.38" x2="60.91" y2="25.38"/><line class="cls-1" x1="33.79" y1="25.38" x2="0.49" y2="25.38"/><circle class="cls-2" cx="46.55" cy="42.01" r="23.26"/><path class="cls-1" d="M27.21,12.88l6-10.26A4.28,4.28,0,0,1,36.9.5L56.32.56A4.26,4.26,0,0,1,60,2.71l5.82,10.17"/><path class="cls-1" d="M7.74,12.88V10.37A1.89,1.89,0,0,1,9.62,8.49h8.85a1.89,1.89,0,0,1,1.88,1.88v2.51"/><line class="cls-3" x1="77.55" y1="19.2" x2="83.79" y2="19.2"/><circle class="cls-2" cx="94.7" cy="58.74" r="22.16"/><path class="cls-4" d="M109.85,60.12,90.7,71.17a1.59,1.59,0,0,1-2.39-1.37V47.68a1.59,1.59,0,0,1,2.39-1.37l19.15,11A1.6,1.6,0,0,1,109.85,60.12Z"/><circle class="cls-5" cx="46.41" cy="41.78" r="16.96"/></g></g></svg>