<svg xmlns="http://www.w3.org/2000/svg" viewBox="0 0 62.34 65.7"><defs><style>.cls-1,.cls-2{fill:none;stroke-miterlimit:10;}.cls-1{stroke:#1d1d1b;}.cls-2{stroke:#787bba;}.cls-3{fill:#787bba;}</style></defs><g id="Layer_2" data-name="Layer 2"><g id="Layer_1-2" data-name="Layer 1"><path class="cls-1" d="M51.43,35.39l-7.7,6.45V35.39h-12a6.15,6.15,0,0,1-6.15-6.15V6.65A6.15,6.15,0,0,1,31.76.5H55.69a6.15,6.15,0,0,1,6.15,6.15V29.24a6.15,6.15,0,0,1-6.15,6.15Z"/><path class="cls-1" d="M36.15,61.08,31.9,64.63V61.08H25.3a3.39,3.39,0,0,1-3.39-3.39V45.22a3.38,3.38,0,0,1,3.39-3.38H38.5a3.38,3.38,0,0,1,3.39,3.38V57.69a3.39,3.39,0,0,1-3.39,3.39Z"/><path class="cls-1" d="M28.48,41.84a4.48,4.48,0,0,0,.17-1.21V23.07a4.78,4.78,0,0,0-4.78-4.77H5.27A4.76,4.76,0,0,0,.5,23.07V40.63a4.77,4.77,0,0,0,4.77,4.78h9.3v5l6-5h1.36"/><line class="cls-2" x1="7.48" y1="29.97" x2="21.91" y2="29.97"/><line class="cls-2" x1="7.48" y1="34.36" x2="21.91" y2="34.36"/><line class="cls-2" x1="11.18" y1="39.39" x2="13.76" y2="24.98"/><line class="cls-2" x1="15.39" y1="39.39" x2="17.96" y2="24.98"/><path id="regular_thumbs-up" data-name="regular thumbs-up" class="cls-3" d="M53.86,21.67a2.36,2.36,0,0,1-.74,3.06c.41,2.58-.93,3.49-2.81,3.49h-2c-3.8,0-6.26-2-9.1-2V16.34h.58c1.5,0,3.6-3.76,5-5.17s1-4,2-5c2.5,0,2.5,1.75,2.5,3,0,2.07-1.5,3-1.5,5h5.52a2.06,2.06,0,0,1,2,2c0,1-.68,2-1.19,2a2.54,2.54,0,0,1-.27,3.48Z"/><rect class="cls-2" x="35.11" y="17.26" width="3.81" height="8.05"/><path id="solid_heart" data-name="solid heart" class="cls-3" d="M36,48.64a2.74,2.74,0,0,0-3.74.27l-.39.41-.39-.41a2.74,2.74,0,0,0-3.74-.27,2.88,2.88,0,0,0-.3,4.06l.1.1,3.88,4a.63.63,0,0,0,.88,0l0,0,3.88-4a2.86,2.86,0,0,0-.09-4.06Z"/></g></g></svg>