<svg xmlns="http://www.w3.org/2000/svg" viewBox="0 0 72.81 70.88"><defs><style>.cls-1{fill:#787bba;}.cls-2{fill:none;stroke:#1d1d1b;stroke-miterlimit:10;}</style></defs><g id="Layer_2" data-name="Layer 2"><g id="Layer_1-2" data-name="Layer 1"><rect class="cls-1" x="7.2" width="9.83" height="44.51"/><path class="cls-2" d="M32.83,6.75H67.55a4.76,4.76,0,0,1,4.76,4.76V50.85a4.77,4.77,0,0,1-4.76,4.77H5.26A4.77,4.77,0,0,1,.5,50.85V11.51A4.77,4.77,0,0,1,4.3,6.84"/><line class="cls-2" x1="0.5" y1="44.51" x2="72.31" y2="44.51"/><rect class="cls-2" x="26.44" y="55.62" width="20.2" height="8.7"/><path class="cls-2" d="M18.9,70.38H53.83v-3.1a2.7,2.7,0,0,0-2.7-2.7H21.6a2.7,2.7,0,0,0-2.7,2.7Z"/><line class="cls-2" x1="7.2" y1="4.78" x2="13.16" y2="4.78"/><line class="cls-2" x1="7.2" y1="9.08" x2="10.84" y2="9.08"/><line class="cls-2" x1="7.2" y1="13.46" x2="13.16" y2="13.46"/><line class="cls-2" x1="7.2" y1="17.77" x2="10.84" y2="17.77"/><line class="cls-2" x1="7.2" y1="22.08" x2="13.16" y2="22.08"/><line class="cls-2" x1="7.2" y1="26.39" x2="10.84" y2="26.39"/><line class="cls-2" x1="7.2" y1="30.87" x2="13.16" y2="30.87"/><line class="cls-2" x1="7.2" y1="35.18" x2="10.84" y2="35.18"/><line class="cls-2" x1="7.2" y1="39.57" x2="13.16" y2="39.57"/><polyline class="cls-2" points="22.92 44.51 22.92 11.9 27.42 4.78 31.56 11.9 31.56 44.51"/><polyline class="cls-2" points="22.92 11.9 27.24 14.48 31.56 11.9"/><line class="cls-2" x1="27.24" y1="18.11" x2="27.24" y2="24.97"/><line class="cls-2" x1="27.24" y1="28.76" x2="27.24" y2="32.31"/><line class="cls-2" x1="22.92" y1="38.64" x2="31.56" y2="38.64"/><line class="cls-2" x1="35.01" y1="10.88" x2="41.3" y2="10.88"/><line class="cls-2" x1="35.01" y1="40" x2="41.3" y2="40"/><line class="cls-2" x1="38.16" y1="10.88" x2="38.16" y2="40"/><rect class="cls-1" x="44.98" y="15.29" width="23.21" height="10.29"/><rect class="cls-1" x="44.98" y="29.85" width="9.44" height="5.74"/><rect class="cls-1" x="58.75" y="29.85" width="9.44" height="5.74"/></g></g></svg>