<svg id="Lag_1" data-name="Lag 1" xmlns="http://www.w3.org/2000/svg" viewBox="0 0 1200.01 801.06"><defs><style>.cls-1{fill:#eaf3fa;}.cls-2{fill:#8581f6;}.cls-3{fill:#fff;}.cls-4{fill:#c99e81;}.cls-5{fill:#a8a8a8;}.cls-6{fill:#8c888c;}.cls-7{fill:#d3a484;}.cls-8{fill:#030709;}.cls-9{fill:#503824;}.cls-10{fill:#d8a880;}.cls-11{fill:#a3a288;}.cls-12{fill:#9f8863;}.cls-13{fill:#9e8662;}.cls-14{fill:#59492c;}.cls-15{fill:#997443;}.cls-16{fill:#caa26e;}.cls-17{fill:#af9671;}.cls-18{fill:#e1b081;}.cls-19{fill:#35220f;}.cls-20{fill:#b28f5f;}.cls-21{fill:#070402;}.cls-22{fill:#b9bca6;}.cls-23{fill:#a3a3a3;}.cls-24{fill:#a9ab9e;}.cls-25{fill:#867058;}.cls-26{fill:#d1a882;}.cls-27{fill:#e6bb90;}.cls-28{fill:#6e4022;}.cls-29{fill:none;}.cls-30{fill:#ce956f;}.cls-31{fill:#dca478;}.cls-32{fill:#d3a179;}.cls-33{fill:#e4b486;}.cls-34{fill:#0c0906;}.cls-35{fill:#422918;}.cls-36{fill:#382a1a;}.cls-37{fill:#ad7d51;}.cls-38{fill:#d6a676;}.cls-39{fill:#e1b57e;}.cls-40{fill:#aa9074;}.cls-41{fill:#a18b77;}.cls-42{fill:#000005;}.cls-43{fill:#c9a073;}.cls-44{fill:#d2aa78;}.cls-45{fill:#2d190f;}.cls-46{fill:#5f391e;}.cls-47{fill:#9d7136;}.cls-48{fill:#c69166;}.cls-49{fill:#d89f6b;}.cls-50{fill:#df9746;}.cls-51{fill:#d6baa1;}.cls-52{fill:#c68246;}.cls-53{fill:#da8c44;}.cls-54{fill:#e0934c;}.cls-55{fill:#eda569;}.cls-56{fill:#fcb169;}.cls-57{fill:#c96912;}.cls-58{fill:#3a140c;}.cls-59{fill:#280a02;}.cls-60{fill:#260c07;}.cls-61{fill:#ca9f67;}.cls-62{fill:#2e130c;}.cls-63{fill:#ad762a;}.cls-64{fill:#9b5016;}</style></defs><path class="cls-1" d="M1200.32,215.5V800.41H.32V324.29a3.94,3.94,0,0,0,0-1c0-.11,0-.22,0-.33s0-.06,0-.09v0c.18-.33.36-.65.55-1,69.65-121,204.5-176.14,413.72-156a2,2,0,0,1,.34.06c95.77,22.43,174.89-18.09,244.49-94.6a1.21,1.21,0,0,1,.16-.16C815.2-74,1098.36,14.4,1200.32,215.5Z" transform="translate(-0.31 0.65)"/><path class="cls-2" d="M1200.32,385.77V800.41H.32V324.29a3.94,3.94,0,0,0,0-1c0-.11,0-.22,0-.33L1,321.81l27.65,3.54V447.77h28v-68H99.79l1.45,65h45.84l-1.45-174h64v175h61v-123h48v55h6v-46h45.73l-.73,116h75.26l.74-63H546.9l.73,63h37.72l-.72-130h85.09l-1.09,134h81.93l1.1-53h41v55h102v-55h60.72l-.72,58H969.9l.73-143h57v143h95v-35h53v-36Z" transform="translate(-0.31 0.65)"/><path class="cls-3" d="M448.5,267.77H621.23c-13.16-16.11-37-23.95-78.7-18C499.64,223.58,469.87,234,448.5,267.77Z" transform="translate(-0.31 0.65)"/><path class="cls-3" d="M874.66,184.77h172.73c-13.15-16.11-37-24-78.69-18C925.81,140.58,896,151,874.66,184.77Z" transform="translate(-0.31 0.65)"/><path class="cls-3" d="M684.15,117.77H901.93c-6.14-23.59-34.58-33.45-99.39-21-28-17.88-55.49-24.31-81.36,3.41C695.34,95.47,686.11,103.76,684.15,117.77Z" transform="translate(-0.31 0.65)"/><rect class="cls-1" x="530.31" y="391.43" width="8" height="21"/><rect class="cls-1" x="153.31" y="366.43" width="8" height="21"/><rect class="cls-1" x="279.31" y="334.43" width="8" height="21"/><rect class="cls-1" x="191.31" y="304.43" width="8" height="21"/><rect class="cls-1" x="353.31" y="379.43" width="8" height="21"/><rect class="cls-1" x="465.31" y="410.43" width="8" height="21"/><rect class="cls-1" x="595.31" y="334.43" width="8" height="21"/><rect class="cls-1" x="617.31" y="334.43" width="8" height="21"/><rect class="cls-1" x="778.31" y="416.43" width="8" height="21"/><rect class="cls-1" x="937.31" y="412.43" width="8" height="21"/><rect class="cls-1" x="980.31" y="376.43" width="8" height="21"/><rect class="cls-1" x="1012.31" y="325.43" width="8" height="21"/><rect class="cls-1" x="1128.31" y="429.43" width="8" height="21"/><rect class="cls-1" x="90.31" y="396.43" width="7" height="16"/><path class="cls-4" d="M62.12,648v19.21c-2.2,2.74-5.09,4.3-8.13,5.76-3.18,1.22-5.45,3.16-4.41,6.93,1.65,28.95,84.91,38.59,93.78,4.22l-1-4.6c-2.44-2.41-5.79-5.28-9.56-8.36-1-8.34-.74-18.35-.09-29Z" transform="translate(-0.31 0.65)"/><path class="cls-5" d="M177.32,699.78V800.06H.32v-98C16,692,31.78,685.44,40.26,680.77c1.23-.69,2.31-1.32,3.21-1.93,22.33,37.1,84.36,43.42,105.25,4.75l1.46.83Z" transform="translate(-0.31 0.65)"/><path class="cls-6" d="M40.25,680.77c4.73-4.64,10.42-7.1,16-9a15.32,15.32,0,0,0-5.93,4.75c2,29.8,81,41.05,91.08,4.81a2.71,2.71,0,0,0-1-2.9,45.19,45.19,0,0,1-7.65-7.26l18.38,14C141.25,730.21,58.56,723,40.25,680.77Z" transform="translate(-0.31 0.65)"/><path class="cls-7" d="M53.8,621.38c-3.9-1.33-5.74-4.43-6.41-8.56A72.53,72.53,0,0,1,46,592.2l6.2-4.55,4.76-32.26,16.12-17,22.68-3.45,36.05,9.51,15.92,23.78L141.34,608c1.44-7.49,4.42-11.22,9.83-6.46.28,9.9-1.93,17.89-6,24.49a19.53,19.53,0,0,1-4.76,4.59c-17,34.21-31.91,44.89-45.9,44.53C74.28,671.21,55,654.94,53.8,621.38Z" transform="translate(-0.31 0.65)"/><path class="cls-8" d="M52.43,589.65l4.82-1.93c1.71,0,2.78,1.47,3.22,4.27.56,8.63,2,10.76,7.67,11.72a47.28,47.28,0,0,0,19,.5,5,5,0,0,0,3.44-2.5L95,593.64c1-2.19,5.92-1.93,6.72.52l3.06,9.14a5,5,0,0,0,2.66,3,17.77,17.77,0,0,0,2.94,1,42.09,42.09,0,0,0,18.16,1,7.72,7.72,0,0,0,5.79-4.08,25.88,25.88,0,0,0,2.06-5.8c1-2.22,2.09-3.91,4.07-3.38l.38-5a73.59,73.59,0,0,0-19.06-4.62c-.41-.05-.83-.08-1.25-.1a63.07,63.07,0,0,0-12.38.58,5.94,5.94,0,0,0-2.08.77c-4.64,2.78-8.87,2.79-12.61-.49a6,6,0,0,0-1.27-.86l-1.28-.63a18,18,0,0,0-3.9-1.4l-2.78-.66a20.25,20.25,0,0,0-3.87-.53l-10.63-.41c-.41,0-.81,0-1.22,0l-10.45.52L52.43,584Z" transform="translate(-0.31 0.65)"/><path class="cls-9" d="M53.8,606.67l1.25-16.54,6.55-31.84c2-11.52,9.21-17.39,20.53-18.82a156.12,156.12,0,0,0,26.06,3.72,148.12,148.12,0,0,0,27.91,14.89c4.69,6.43,4.85,18.73,4.55,31.64l-2.89,29.77h1.44c1.91-15,5.29-23.75,12-18.19,3.12-2,3.6-5.66,2.71-10.14-2.36-2-2.45-8.93,1-23.57-9.19-26.37-22.43-39.92-40.5-38.25-23.89-5.75-39.77-.92-48.75,13-23.78,18.61-16.33,19-19,49.63C50.87,594.24,53.08,599.42,53.8,606.67Z" transform="translate(-0.31 0.65)"/><path class="cls-9" d="M53.41,602.75c5.89,18.4,13,38.79,19.74,48.66a27,27,0,0,0,35.64,8.31c14.75-8.37,24.75-22.2,29-40.23h1.44l.49,11.17a10.39,10.39,0,0,1-.79,3.73c-6.19,17.09-17.77,32.08-35.06,39.61-4.47,2-13.26,1.89-17.64-.26-19.58-9.65-31-23.91-32.78-53.68a10.65,10.65,0,0,1,0-1.13Z" transform="translate(-0.31 0.65)"/><path class="cls-7" d="M69.23,582.9c-4.62-.35-6.13,1.21-6.39,5.41,0,.39,0,.79,0,1.19.13,3.64,0,5.6.59,8.11.54,3,1.27,3.67,4.13,4.61,2,.67,9.28,1.56,18.19,1,1.75-.11,4-2.22,4.73-4.76,0-.18.1-.37.16-.55l1.84-5.45a5,5,0,0,0,.25-1.32c.14-3.46-1.12-5.62-4-6.27A77.42,77.42,0,0,0,69.23,582.9Z" transform="translate(-0.31 0.65)"/><path class="cls-7" d="M129.1,587.76c4.7.28,6,2,5.67,6.27a7.68,7.68,0,0,1-.11.82c-.64,3.72-.79,5.7-1.71,8.14-.92,2.83-1.75,3.43-4.74,4-2.13.39-9.48.28-18.33-1.41a6.15,6.15,0,0,1-4.1-5.32c0-.18,0-.37-.09-.56l-1-4.9a8.3,8.3,0,0,1,.12-3.9,4.76,4.76,0,0,1,4.47-3.76A79.5,79.5,0,0,1,129.1,587.76Z" transform="translate(-0.31 0.65)"/><path class="cls-10" d="M219.51,644.47c7.79,13.48,16.82,29.44,14.94,34.42,4,9.2,13.72,10,27.18,5.52l11.45-6.65,29.56-24.69c-1.46,0-2.68-1.33-3.81-3.24a156.79,156.79,0,0,1-2.07-26.15l-1.91-1.78Z" transform="translate(-0.31 0.65)"/><path class="cls-11" d="M147.43,800.1a301.23,301.23,0,0,1,17.64-56.24c-1.55-19.87,8.73-41.44,42-66.28l21-17.72c3.43,4,5.66,10.76,6.71,17.28a10.65,10.65,0,0,0,7.88,8.64c4,1,9.13.84,15.17-.12a19.22,19.22,0,0,0,6.56-2.33c8.43-4.87,14.38-10.6,21.47-16.56l15.74-12.71c4.47-4.45,9.27-6.15,14.46-4.61l16.06,8.42,11.26,14.78V800.1Z" transform="translate(-0.31 0.65)"/><path class="cls-12" d="M219.27,662c-15.49,5.72-16,13-6.67,21.29,5.92,3.85,19,8,31.34,11.76l3.58-2.22L218,675.67C214.25,672.32,214.52,667.81,219.27,662Z" transform="translate(-0.31 0.65)"/><path class="cls-13" d="M225.79,656.92c-7.06,1.93-9.38,7.55-8.32,15.78a5.71,5.71,0,0,0,2.16,3.8,170.76,170.76,0,0,0,15.86,10.14c-4.43-9.1-9.17-18.71-11.23-23.87a4.11,4.11,0,0,1,.24-3.54Z" transform="translate(-0.31 0.65)"/><path class="cls-14" d="M218.12,663.51q-6.26,9.13,1.95,13.44c-2.65-2.14-3.74-6.1-1.95-13.44Z" transform="translate(-0.31 0.65)"/><path class="cls-15" d="M225.79,656.92a36.57,36.57,0,0,1,7.74,14c-1.56,2.7-1.27,6.82,0,11.71C229.52,673.93,219.47,661.86,225.79,656.92Z" transform="translate(-0.31 0.65)"/><path class="cls-16" d="M233.42,671.14l-1.56,3.39a5.62,5.62,0,0,0-.62,2,18.12,18.12,0,0,0,1.07,4.61,16.61,16.61,0,0,0,6,7.63c2.52,1.66,6.41,2.83,9.25,4.05l13.56-8C244.27,687.23,238.18,687.65,233.42,671.14Z" transform="translate(-0.31 0.65)"/><path class="cls-12" d="M241.56,696.26l75.78-46.6c10.39-4,14.31,1.45,14.84,8,7.22-2.51,11.47-.84,11.21,7.2v8c-12.27-4.93-58.52,14-84.84,26.14a3.44,3.44,0,0,1-1.62.3l-14.87-.9A1.1,1.1,0,0,1,241.56,696.26Z" transform="translate(-0.31 0.65)"/><path class="cls-15" d="M299.65,656.92c.34-1.24,1-3.82-.86-4.74L298,646l1.73,1c2.8-3.15,6.31-1.51,10.23,2.94C307.6,651.15,302.62,653.86,299.65,656.92Z" transform="translate(-0.31 0.65)"/><path class="cls-17" d="M269.4,680.28c14.33-12.81,28.47-24.69,38.2-31.36,4.24-.82,7.79-.34,9.74.74C306.82,659,288.46,669.23,269.4,680.28Z" transform="translate(-0.31 0.65)"/><path class="cls-18" d="M211.57,597.23q-.6,6.94-1.19,13.87a21.23,21.23,0,0,0,.26,5.74,103.42,103.42,0,0,0,11.54,32.88,19.8,19.8,0,0,0,9.55,8.45c11.84,5,24.59,4.43,38.36-2.37a37.44,37.44,0,0,0,12.1-9.54,67.59,67.59,0,0,0,13.06-23c3.76,4.72,8.74,1.86,11-7.79a158.68,158.68,0,0,0,1.91-16.63c.11-5.3-.29-9.59-2.23-10.81-2.22-.39-3.53.1-4.24,1.16L287.89,563l-26.28-18.44-30.84,8.37-17.91,15Z" transform="translate(-0.31 0.65)"/><path class="cls-19" d="M211.17,600l4-24c7.38,2.06,17.51-.11,30.73-7,6.07,7.62,14.34,7.33,25.54-3.5,3.4,2.87,7.59,4,12.51,3.4a28.59,28.59,0,0,0,7.94,15.78c.71,7,1.92,12.4,3.71,16.11,2.62-7.22,5.87-12.35,10.39-13.14a97.38,97.38,0,0,1,1.48-15.89c-2.34-21.09-14.51-35.11-39-40.27-21.94-2.79-39.23,1.9-50.33,16.53-10.9,6.57-12.09,19.87-7.63,37.09Z" transform="translate(-0.31 0.65)"/><path class="cls-20" d="M230.14,687.6q2.27-3.45,4.55,1.37c-4.49,26.8-10.61,54.53-19.5,78.84,3.32,4.4,3.5,6.74-2.43,5.09a51.76,51.76,0,0,1-4.14-4.88c-1.09-3.51-.17-5.06,3.29-4.13a149,149,0,0,0,11-35.07C226.43,712.6,230.65,694.78,230.14,687.6Z" transform="translate(-0.31 0.65)"/><path class="cls-20" d="M257.58,690.14a3.66,3.66,0,0,1,3.71,1.16,34.26,34.26,0,0,0-7.1,18.55c-1.21,11-4.61,26.31-8.37,42.28l-6.36,23c2.71,3.26,2.4,5.61-2.12,6.68-2.71-1.4-4.59-3.15-4.34-5.83,0-2.11,1-3.33,3.18-3.39L247.83,729l4-26.49C253.38,697.65,255,693,257.58,690.14Z" transform="translate(-0.31 0.65)"/><path class="cls-19" d="M225.27,626.32,240,621.74a9.84,9.84,0,0,1,6-.2l21.07,6a2.63,2.63,0,0,0,3.18-1.62h0a1.48,1.48,0,0,0-.95-1.91l-21.54-6.54a13.74,13.74,0,0,0-8.08,0L226,621.72a2.64,2.64,0,0,0-1.73,1.77,2.14,2.14,0,0,0,.3,1.77l.7,1.06Z" transform="translate(-0.31 0.65)"/><path class="cls-19" d="M214.92,633.47c20,28.77,77.83,14.79,80.7-33.37C301,669.43,233.53,701.37,214.92,633.47Z" transform="translate(-0.31 0.65)"/><polygon class="cls-21" points="424.11 701.71 423.92 702.23 422.42 706.47 422.42 706.47 418.67 717.04 389.76 798.64 389.5 799.39 389.24 800.13 389.23 800.14 389.21 800.2 322.89 800.2 322.9 800.13 322.98 799.39 323.07 798.64 333.11 709.25 344 675.53 344.99 672.46 363.97 664.46 417.14 697.4 417.57 697.66 424.11 701.71"/><polygon class="cls-22" points="469.47 720.81 469.47 800.13 440.34 800.13 440.13 799.39 439.93 798.64 426.29 749.94 468.53 721.45 469 721.13 469.47 720.81"/><path class="cls-23" d="M426.62,681.63l-31.49,51.88-22.17,66,70.34.06c-2.47-6.28-1.08-13.55,2.8-21.45-1.52-13.65-1.22-25.66,5.72-31.78,7-11.38,12.66-22.39,18-26.15V683.69Z" transform="translate(-0.31 0.65)"/><path class="cls-22" d="M285.54,799.48c-.1-22.88,3.32-45.45,15.42-67.26A125.25,125.25,0,0,1,310.35,697l-3,35.55-6.06,43.62L304,784.1l-3.5,15.38Z" transform="translate(-0.31 0.65)"/><path class="cls-24" d="M426.62,707.26a17.73,17.73,0,0,1-7.11,8.82,3.5,3.5,0,0,1-.53.31,4.22,4.22,0,0,1-3.43.12c-1.16-.47-2-1-2.23-1.84l-.51-3.51c-.38,2.34-6.27,11.32-10.87,18.75a29.3,29.3,0,0,1-2.54,9.7,102.33,102.33,0,0,1-5.43,22c-.28,8.41-1.74,13.28-4.07,15.59-.85,7-4.77,13.86-9.52,20.74l-.52.75-.51.74h0l0,.06H363.4l0-.06.4-.74c.14-.25.26-.5.39-.75a42.17,42.17,0,0,0,4.09-16.32c1.28-4,3.92-7,4.58-10.52,1.67-8.89,5.06-14.56,7.46-14.32l12.95-26.52c0-5.08,6.59-15.66,11.28-19.5l7.64-10.21,4.7-3,1-.61,13.06-8.29a101.19,101.19,0,0,1-6.71,12.86,47.21,47.21,0,0,1-3.5,4.81l.81.46a6.41,6.41,0,0,1,1.19-1h0C424.17,704.87,425.48,705.23,426.62,707.26Z" transform="translate(-0.31 0.65)"/><path class="cls-25" d="M425.24,635.11c6.05,4.08,9.61,9.07,10.81,14.9,8,6.18,13.74,12.9,16.91,20.19,3,.37,6,.72,8.66,1.21a10,10,0,0,1,8.16,9.84v2.44c-9.62-.07-19.19,2.69-28.71,8a4.47,4.47,0,0,1-3.24.45c-5.06-1.27-8-.4-10.46,1.18-3.85,2.43-6.77,6.55-15.15,7.29l11.69-32.35a23,23,0,0,0,1.29-10.61C424.24,649.73,424.79,642.33,425.24,635.11Z" transform="translate(-0.31 0.65)"/><path class="cls-23" d="M312,692.42c9.67-10.31,21.74-15.64,35.18-18.1l1.6,27.2v4.34c4.08-.05,5.78,2.17,4.73,7v8.45l-1.83,6.18L340.68,750a25.8,25.8,0,0,0-.91,7.11,25.74,25.74,0,0,1-3.25,10.77c-.28,9.19-3.73,20.15-8,31.58H299.34l.5-15.83-2.23.91c-2.14-6.13.15-18,4.27-32.3a80.39,80.39,0,0,1,5.58-19.61c-.93-7.46.72-21.55,2.61-36.27A7.16,7.16,0,0,1,312,692.42Z" transform="translate(-0.31 0.65)"/><path class="cls-26" d="M364.05,654c1.22,9.34-.12,19.07-3.26,29.06a17,17,0,0,0-.81,5c-.22,25.71,21.92,23.73,53.49,10.05l10.73-30.52a26.33,26.33,0,0,0,1.4-10.89c-1-12.38-.84-23.1,1-31.53Z" transform="translate(-0.31 0.65)"/><path class="cls-27" d="M352,637.53q10.43,17.81,20.69,22.83a13.83,13.83,0,0,0,9.26,1c22.72-5.39,40.11-15.45,44.69-36.68,5.32,1.67,9.3-2.37,12.12-11.38,6.06-12.83,6.83-21.59-2.74-22.4L417.3,551.28l-63.38-5-9.3,44.8,1.6,16.14,1.25,15.79A34.21,34.21,0,0,0,352,637.53Z" transform="translate(-0.31 0.65)"/><path class="cls-28" d="M346,607.26c2.52-30.73,5.44-59.42,16-49.78a2.44,2.44,0,0,0,3.07.18l2.69-1.94a1,1,0,0,1,1.54.66L371.37,571a.53.53,0,0,0,1,.18l3.29-5.88a.69.69,0,0,1,1.25.11l3.2,9.37a.18.18,0,0,0,.36-.06V568a.22.22,0,0,1,.38-.14l5.46,6.82a.22.22,0,0,0,.39-.13v-7.62a.19.19,0,0,1,.32-.14l9.57,8.94a.16.16,0,0,0,.25-.18l-3.55-7.3a.15.15,0,0,1,.2-.21l9,4.28a.32.32,0,0,0,.47-.29v-5.05a.2.2,0,0,1,.34-.13l4.77,5.28a.5.5,0,0,0,.75,0l4.46-5.12a.34.34,0,0,1,.51,0c2.52,2.92,4.35,7.19,5.57,12.69a7.67,7.67,0,0,0,1.1,2.6l3.77,5.68a9,9,0,0,1,1.49,4.52l1.19,22.21a.18.18,0,0,0,.35,0l6.13-18.39a.1.1,0,0,1,.2,0V603a.09.09,0,0,0,.18,0c.56-3.29,2.22-12.72,2.79-11a32.42,32.42,0,0,1,1,4.22.17.17,0,0,0,.34,0l1-4.32a.28.28,0,0,1,.46-.14l3.08,2.38c3-27.46-.78-51.71-28.37-64.77a17,17,0,0,0-7.68-1.62,56.77,56.77,0,0,1-17.84-2.39,16.26,16.26,0,0,0-7.24-.44C333.36,532.9,340.48,575.31,346,607.26Z" transform="translate(-0.31 0.65)"/><path class="cls-25" d="M349.19,700.75l15.31-34.89a36,36,0,0,0,.77-10.67l-2-2.1a28.79,28.79,0,0,0-4.35,5.84c-1,.74-1.94,1.51-2.82,2.3-9.8,2.2-15.09,8.95-17.44,18.65C341.53,689.63,345.22,695.8,349.19,700.75Z" transform="translate(-0.31 0.65)"/><rect class="cls-29" x="190.75" y="800.13" width="277.78" height="0.07"/><path class="cls-30" d="M497.76,624.33l2,44.79s51.24,1.09,51,0,1.35-50.66,1.35-50.66Z" transform="translate(-0.31 0.65)"/><path class="cls-31" d="M515.24,555.81c-10.9,4.6-19.28,11.2-25.1,19.12a6,6,0,0,0-1.13,3l-.49,5.73a5.4,5.4,0,0,1-.09.58l-1.53,7.26a11.94,11.94,0,0,0-.25,2.86,151.11,151.11,0,0,0,2.06,17.39c1.9,18.22,14.77,32.2,25.16,32.2,11.41.07,20.79-2.79,26.59-10.87L556,612l-2-39.16c-10.36-7-20.29-14.73-28.65-17.49A14.46,14.46,0,0,0,515.24,555.81Z" transform="translate(-0.31 0.65)"/><path class="cls-32" d="M603.21,679.73c-9.85.36-16.2,9.68-20.32,24.75v0c-.27,1-.52,2-.77,3-.56,2.33-1.08,4.79-1.55,7.35-.5,1.39-1,2.77-1.4,4.15a140,140,0,0,0-4.07,15.82c-.05.23-.09.46-.13.68s-.13.66-.19,1c-.95,5.11-1.62,10.14-2.09,15.12q-.21,3.42-.19,6.88a136.33,136.33,0,0,0,1.88,21.18l-1,19.84H489.81l50.33-95.81.7-1.32L567.59,661C576.63,663.25,589.09,669.6,603.21,679.73Z" transform="translate(-0.31 0.65)"/><path class="cls-32" d="M483.73,658.56l-1.22,37.75-.59,17.88-9.51,39.55-6.57,37.42-1.28,8.35,0,.18-6.39,0-16.52-.06-8.7,0v-.07l2.68-36.09,6.52-33.35c-2-28.37,1.66-49.3,12.7-60.47C463.49,663.05,472.94,658.84,483.73,658.56Z" transform="translate(-0.31 0.65)"/><path class="cls-33" d="M548.75,715.58l-55.11,83.93H481.78c0,.1,0,.2,0,.3l-4.89-.12v-.18l2.78-35.26,45.31-75.17,2.5,2.41,12.7,12.21,8.15,7.84A3.18,3.18,0,0,1,548.75,715.58Z" transform="translate(-0.31 0.65)"/><path class="cls-33" d="M612.87,683.83V799.51H573.34l1-19.84a99,99,0,0,1-1.88-21.18,132.79,132.79,0,0,1,2.28-22c.06-.33.12-.66.19-1s.08-.43.12-.64v0L579.16,719l3-11.5.77-3v0c3.77-14.44,9.64-24.56,20.32-24.75L567.59,661l3.12-3.45,38.4,22.81A11.2,11.2,0,0,1,612.87,683.83Z" transform="translate(-0.31 0.65)"/><path class="cls-34" d="M541.55,663.21l-14.11,28.28-5.55,11.13-19.78,38.49-9.43,19-6,16.33c-1.92,7.35-3.52,15.07-4.9,23,0,.1,0,.2,0,.3s0,.2-.05.29l-23.55-.32v-.27l.27-3.6h0l1.23-16.54v0l.93-12.55c1.32-6,2.8-11.33,4.61-15.06h0c.14-.27.26-.53.4-.78l8.79-23.15,4.66-12.29.58-14,2.88-5.16L502.72,660l5,1.65a4.37,4.37,0,0,0,2.77,2.05,3.05,3.05,0,0,1,2.73-2.55c2.61,2.46,5.29,2.55,8.05.09a12.51,12.51,0,0,1,7,0c1.76,4.15,3.11,4.66,4.1,2C535.28,661.76,538.37,662,541.55,663.21Z" transform="translate(-0.31 0.65)"/><path class="cls-35" d="M520.57,555.06c11.12.81,22.08,13.85,29.39,22.53-.92-12.66-5.26-30.26-22.52-41.08C523.32,541.26,519.52,547.27,520.57,555.06Z" transform="translate(-0.31 0.65)"/><path class="cls-36" d="M529.52,532.2c16.34-9.33,37.25,21.49,43.1,61.32,3.82,39.2,1.29,72.07-6.62,99.56a19.58,19.58,0,0,1-3.92,7.33c-4.76,5.55-10.12,8.11-16,8.21a2,2,0,0,0-1.54.79c-3.76,5.07-10,7.67-17.82,8.72h-2.36a.41.41,0,0,1-.2-.78c4.83-2.52,8.41-5.16,9.59-8a.39.39,0,0,0-.37-.53H522.73a.18.18,0,0,1-.09-.34,3.5,3.5,0,0,0,2-3.84.52.52,0,0,0-.49-.43L517,704a.44.44,0,0,1-.33-.72l4.34-5.1a.31.31,0,0,0-.32-.5l-4,1.06a.27.27,0,0,1-.31-.38l1.83-3.54a.27.27,0,0,0-.21-.39l-7.13-.69a.32.32,0,0,1-.13-.6c12.22-7.27,22.26-19.69,30.87-35.5a27.13,27.13,0,0,0,3.21-10.57c1-11,2.5-27.8,5.47-46.7a52.17,52.17,0,0,0,.57-10c-1-24.45-8.68-37.56-24.35-52.31Z" transform="translate(-0.31 0.65)"/><path class="cls-33" d="M479.63,701.47l-.4,9.83a23.93,23.93,0,0,1-1.46,7.3l-3.38,9.2-9.19,23.93h0l-3.43,10.63a18.13,18.13,0,0,0-.77,3.71l-1.34,13.27v0a129,129,0,0,0-1.23,16.54h0l-.27,3.6v.16l-16.52-.06v-.1c-.8-31.65,0-63.68,20.45-100.33Z" transform="translate(-0.31 0.65)"/><path class="cls-36" d="M520.57,555.06c.22-8.67,6.32-17,8.95-22.86-16.51-7.35-35.7,8.36-44.56,32-7.09,19.37-8.9,41.65-8,65.4l-1,25.11c-.27,20.32-7.36,33.34-20,40.38a2.1,2.1,0,0,0-.86,2.75c6.89,14.26,16.13,15.61,27,7.92a2.7,2.7,0,0,1,3.25.1c9,7.31,14.56,5,18.68-1.28a7.13,7.13,0,0,0,1.13-4.26l-1-18.63a.16.16,0,0,1,.32,0l1.45,6.28a.19.19,0,0,0,.37-.06l-4.15-49c-5.38-4.51-8.38-10.74-11.22-18.44-1.18-5.67-2.44-11.71-3.29-18.67a41.24,41.24,0,0,1-.05-9.93,93.51,93.51,0,0,1,2.34-12.51,20.77,20.77,0,0,1,3.54-7.31C499.54,563.87,509.74,556.64,520.57,555.06Z" transform="translate(-0.31 0.65)"/><path class="cls-29" d="M481.78,799.51c0,.1,0,.2,0,.3s0,.2-.05.29l-23.55-.32v-.11l-16.52-.06-8.7,0v-.07Z" transform="translate(-0.31 0.65)"/><polygon class="cls-37" points="702.72 615.33 701.92 623.65 704.96 641.19 707.51 642.34 705.43 623.65 707.51 620.34 702.72 615.33"/><path class="cls-38" d="M641.59,636.63l.7,19.75c-20.72,52.43,59.82,39.71,68.24-5.58l-5.1-5.76-2-24.5Z" transform="translate(-0.31 0.65)"/><path class="cls-39" d="M643.8,643.24C632.57,632,627,617.58,628.7,599.12l7.4-40.47c15.38-22.3,52.54-25.26,65.33.88,4.24,12.42,3.68,28.81,3.76,40.84a29.83,29.83,0,0,1,4.47-8.79c2.86-3.42,5.3-4.49,6.63.8a17.11,17.11,0,0,1,0,8.71,63.74,63.74,0,0,1-1.67,7.59,23.45,23.45,0,0,1-2.24,4.64c-2.69,6.75-5.43,8.34-8.23,3.75-3.8,22.13-19.52,30.17-41.08,32.62A30.81,30.81,0,0,1,643.8,643.24Z" transform="translate(-0.31 0.65)"/><path class="cls-40" d="M719.94,672.06l19.94,1.69a7,7,0,0,1,6.45,7v119H720.61L709.9,747.35Z" transform="translate(-0.31 0.65)"/><path class="cls-41" d="M598.89,666.64c11.64-6,26.7-11.76,43.39-17.45-17.61,59.63,34.85,55.16,73.38,1.82,6,2.93,15,9.92,25,18.43a16,16,0,0,1,5.67,12.25v17.78c-8.41,8.8-16.68,26.23-24.92,46.12-1.78,9.9,1.31,33,3.68,54.17H588.74l-15-19.33V738.08L579,694.26l5.59-15.65,6.08-6A33.35,33.35,0,0,1,598.89,666.64Z" transform="translate(-0.31 0.65)"/><path class="cls-40" d="M557.25,799.76H589.7c-2.09-16.37-5.48-36.52-9.46-58.4a64.5,64.5,0,0,1-.32-21.16c1.29-8.61,2.55-16.23,3.78-22.68a52,52,0,0,0,.85-6.91l.75-13C572.55,693.07,564.45,743.1,557.25,799.76Z" transform="translate(-0.31 0.65)"/><path class="cls-40" d="M642.28,649.19c-.56,1.8.56,4.85.17,6.51-12.1,50.69,48.25,36.82,66.27-3.23a3.58,3.58,0,0,0-.42-3.67l-2.89-3.74a.6.6,0,0,1,0-.73l0,0c3.31,1.45,8.24,3.75,10.23,6.71C675.05,719.53,616.59,697.19,642.28,649.19Z" transform="translate(-0.31 0.65)"/><path class="cls-37" d="M704.87,605.72l2.63-1.12,1.36-4.15,3.28-1.76-1.61-5.55a3.24,3.24,0,0,1,3.05-3.88c.87,0,1.09-.34,1.84.48,5.21-12.75-.23-26.13-9.44-39.72.18-4.12-2.51-7.54-8.15-10.23-1.21-3-3.94-5.07-8.79-5.84-6.6-3.32-12.85-5.86-18.06-6.15-4.08-2.38-8-3.6-11.43-1.12l-7.83,5.19a7.63,7.63,0,0,1,.79-6.56c-3.89-.19-5.75,3.74-6.79,9.36A30.81,30.81,0,0,1,644,526.6c-2.49,3.06-3.19,7-2.31,11.75-13,9-14.39,16.65-12.63,23.89-3.24,9.57-3,17.65-.62,24.78l-1.78,7.11,2.24,4,1.2.4,3.43-24.14a71.66,71.66,0,0,0,5.36-17,27.21,27.21,0,0,1,13-11c4.73,8,11.63,8.29,21.34-1.28,5.92,6,12.63,9.62,20.38,10A32.78,32.78,0,0,0,702.47,566c-4.32,2-3.42,8.36,2.24,18.54Z" transform="translate(-0.31 0.65)"/><path class="cls-42" d="M697.21,798.12c1.64-16.58,11.31-31.25,19.58-42.21l.05-.06,0-.07c20.83-56.08,45.12-82.12,78.74-84.43h.09l54.64-24.79,49.56,32.24a19.93,19.93,0,0,1,9.1,16.77V798.12Z" transform="translate(-0.31 0.65)"/><path d="M850.29,647.12l49.33,32.09a19.44,19.44,0,0,1,8.87,16.35V797.62H697.76c.93-8.72,4.23-21.27,19.43-41.41l.09-.12.05-.14c9.78-26.32,19.66-44.89,31.11-58.43,13.53-16,29-24.42,47.19-25.67h.18l.17-.08,54.31-24.64m.08-1.14-54.81,24.87c-39.36,2.71-62,38.43-79.17,84.75-10.58,14-18.39,27.79-19.73,43H909.49V695.56a20.5,20.5,0,0,0-9.33-17.19L850.37,646Z" transform="translate(-0.31 0.65)"/><path class="cls-43" d="M795.56,658.76a24.93,24.93,0,0,1,3.91,11.89c-86.36,83.72-46.37,108.16,58.12,21.06a143,143,0,0,1,12.48-9.27C882,674.5,884,667.28,873.5,661c-10.79-5.6-12.67-17.09-9.54-36.12Z" transform="translate(-0.31 0.65)"/><path class="cls-44" d="M781.69,602.76c-10.2,15.06-3.14,34.32,13.87,56,9.22,10.14,20.91,9.78,32.73-1,10.38-6.79,20.3-17.47,31.56-28.93,2.8,1.53,5.68-.36,8.62-5.92a43.26,43.26,0,0,0,5-17.93c.68-10.43-9.16-9.89-13.12,3.13,4.52-62.67-81-78.8-79.66-21.4A122.6,122.6,0,0,0,781.69,602.76Z" transform="translate(-0.31 0.65)"/><path class="cls-45" d="M780.68,586.69c1.86-58,82.38-37.38,79.67,21.32,2.6-9.93,12.86-15.57,13-4,3.19-15.34,4.35-26-2.54-40,4.71-17.11,5.16-31.77-11.16-36.71,5.58-17.89-15.57-24.86-33-10.15-6.62,2.23-9.86,8.73-11.5,17.26C785.35,537.62,780.45,571.52,780.68,586.69Z" transform="translate(-0.31 0.65)"/><path class="cls-42" d="M829.37,619.85c-7.91,0-16.71-5.29-18.26-15.39l0-.11-.06-.1a3,3,0,0,0-2.41-1.48,4.05,4.05,0,0,0-2.75,1.41l-.13.13,0,.18c-1,10.19-8.2,13.81-14.09,13.81a14.46,14.46,0,0,1-14.52-12.4c-.31-2.73-1.12-4.65-2.53-6v-3.57l4.72-1.61-.48,1,.91-.12a47.3,47.3,0,0,1,6.39-.45A37.51,37.51,0,0,1,806.28,601l.16.1.19,0a9.66,9.66,0,0,1,1.72-.15,12,12,0,0,1,2.1.19l.15,0,.15-.06a43.08,43.08,0,0,1,18.54-4.13,55.59,55.59,0,0,1,16.12,2.55l.09,0,14-1.15.09.77-13.75,3.68h-.2c-1.76,0-2.23,2.94-2.38,3.91C842.82,616.41,835.5,619.85,829.37,619.85Z" transform="translate(-0.31 0.65)"/><path d="M778.35,595.59l-.37.8,1.81-.25a48.15,48.15,0,0,1,6.33-.44A36.43,36.43,0,0,1,806,601.38l.33.2.38-.07a8.67,8.67,0,0,1,1.63-.14,11.9,11.9,0,0,1,2,.18l.31.05.29-.13a42.61,42.61,0,0,1,18.33-4.08,55.51,55.51,0,0,1,16,2.52l.18.06.19,0,12.68-1-12.49,3.34h-.16c-2.19,0-2.69,3.15-2.87,4.33v.11c-.44,9.34-7.5,12.66-13.41,12.66-7.69,0-16.26-5.14-17.76-15l0-.24-.14-.19a3.44,3.44,0,0,0-2.81-1.69,4.53,4.53,0,0,0-3.1,1.55l-.26.26,0,.36c-.94,9.86-7.91,13.36-13.59,13.36a14,14,0,0,1-14-11.94,10,10,0,0,0-2.53-6.15v-3l3.27-1.12m1.9-1.71L774.08,596v4.14c1.57,1.39,2.26,3.45,2.54,5.84a14.92,14.92,0,0,0,15,12.82c6.87,0,13.66-4.54,14.59-14.26a3.62,3.62,0,0,1,2.4-1.27,2.51,2.51,0,0,1,2,1.27c1.57,10.27,10.53,15.81,18.75,15.81,7.28,0,14-4.35,14.41-13.61.35-2.25,1-3.49,1.88-3.49a.9.9,0,0,1,.23,0l14.26-3.82-.19-1.68L845.55,599a55.73,55.73,0,0,0-16.26-2.57,43.5,43.5,0,0,0-18.76,4.17,13.37,13.37,0,0,0-2.18-.19,10,10,0,0,0-1.81.16,37.76,37.76,0,0,0-20.42-5.83,47.46,47.46,0,0,0-6.46.45l.59-1.27Z" transform="translate(-0.31 0.65)"/><path class="cls-44" d="M777.88,599.08c1.65-6,23.73-2.75,25.93,3.68C808.29,619.64,775.26,624.88,777.88,599.08Z" transform="translate(-0.31 0.65)"/><path class="cls-44" d="M813.54,604.24a3.49,3.49,0,0,1,1.12-2.57c5.43-5,26-5.23,27,.54C847.43,623.69,813.47,624.07,813.54,604.24Z" transform="translate(-0.31 0.65)"/><path class="cls-46" d="M1003.69,609.18l6.56,9-3.28,31.5A175.34,175.34,0,0,1,1003.69,609.18Z" transform="translate(-0.31 0.65)"/><path class="cls-47" d="M1010.75,655.52c5.38-2.47,10.85-1.8,16.34,0-4.39,3.11-8.17,7.56-11.55,12.9A113.81,113.81,0,0,1,1010.75,655.52Z" transform="translate(-0.31 0.65)"/><path class="cls-48" d="M914.46,648.23c.33.33,90.2-22.32,90.2-22.32a144.41,144.41,0,0,0,16,53.26l-64,32.28c-5.82-2.25-9.92-6.9-11.59-15C945.56,685.45,921.72,664.43,914.46,648.23Z" transform="translate(-0.31 0.65)"/><path class="cls-49" d="M913.56,537.94c-6.92,10.33-8,28.86-7.15,50.07.25,2.55-.39,8.56-1.21,15.31.93,16.09,2.09,26.06,3.41,31.71A94.18,94.18,0,0,0,921,659.56c17.49,14.4,37.45,10.33,59-5.64a175.92,175.92,0,0,0,24.7-28l1.3-10.72c3.79,5.25,11,3.74,11-4.88q7.4-22.57,2.12-36.08c-11.39-4.79-15.32,3.07-15,18.21l-9.75-55.75L957.21,524.5Z" transform="translate(-0.31 0.65)"/><path class="cls-46" d="M906.5,585.77c-1.38-21.83.25-39.12,7.8-47.45,3.53,2.86,7.1,4.92,10.78,5.2,1.72,16.21,13.74,14.27,29.64,5.52,4.88.8,9.38.36,13.38-1.79,7.21,2.89,14.09,2.54,20.5-2.59-.84,12.28,1.39,21.6,6.6,28.05a16.19,16.19,0,0,1,2.86,5.41,56.11,56.11,0,0,1,2.07,10.44,9.66,9.66,0,0,0,.76,2.88L1002,594a.63.63,0,0,0,1.15,0l2.54-5.47a.39.39,0,0,1,.73.06l.56,2a.66.66,0,0,0,1.23.12l1.5-3a.69.69,0,0,1,1.19,0l.69,1.1a.58.58,0,0,0,1-.17l2.84-11.21a2.15,2.15,0,0,1,1.14-1.42l2.63-1.12a.22.22,0,0,0,.13-.19l-.41-13.36a23.45,23.45,0,0,1-1.78-8.93c-2.13-8.25-5-15.11-9.27-19.67a9.39,9.39,0,0,0-5.2-4.87C989.66,510.69,969.64,506,944,511.5c0,0-.51-5.42-.65-4.39-.22,1.68-5.68,5.74-6.17,4.88-1.3-1.05-2.4-3.43-3.4-6.41a.25.25,0,0,0-.49.08c-.06,5.09-1.15,8.94-4.08,10.55l-1.76-9.38a.19.19,0,0,0-.38,0,53.78,53.78,0,0,1-3.71,11.66,99.61,99.61,0,0,0-11.21,15.76c-.42,1.67-.31,2.9.65,3.42-5.65,5.6-9.83,12.29-9.67,22.18C902.11,568.08,903.81,576.83,906.5,585.77Z" transform="translate(-0.31 0.65)"/><path class="cls-50" d="M848.72,800.28c8.24-40.4,20.1-69.63,38.28-79.37,6.47-10.84,16.11-17.34,28-20.72,2.92-12.43,7.68-22.44,17.23-26.25l.81.41,10.73,16c.49,2.5,1.28,5.65,2.27,9.27a16,16,0,0,0,6.59,10c10.43-6.35,22.16-12.62,34.77-18.85,8-7.4,16.2-13.59,24.87-17.8,4.72-7.51,9.54-14.1,14.71-17.79,4.49.91,9.58,3.5,14.87,6.66,4.92,3.83,6.9,9.55,6.46,16.84V800.35Z" transform="translate(-0.31 0.65)"/><path class="cls-51" d="M943.93,692.76c3.42,9.16,2.22,12.36,9,17l-14,8.56Z" transform="translate(-0.31 0.65)"/><path class="cls-52" d="M926.41,730.17l13.49,3.17c28.32-30.22,66.61-39.13,108.4-40.58-32.86-4.77-70.53,7.37-110.11,26.28C933.15,722.36,928.94,726,926.41,730.17Z" transform="translate(-0.31 0.65)"/><ellipse class="cls-52" cx="944.02" cy="723.43" rx="2.26" ry="1.68"/><ellipse class="cls-52" cx="929.95" cy="719.1" rx="1.65" ry="2.17"/><path class="cls-53" d="M931.15,718.28c-5.77,3.21-9.22,11-11.7,20.69l-2.71,18.1a162.3,162.3,0,0,1-6.5,27l-3.69,16.23-3.9.13L913,760.87a47.61,47.61,0,0,0,1.27-6.78c2.81-24.27,8.16-36.32,15.57-38.52C930.84,716.48,931.55,717.39,931.15,718.28Z" transform="translate(-0.31 0.65)"/><path class="cls-54" d="M942.42,722.18c1.17-1.08,2.51-1.13,4.11.43-3.69,4.47-6.43,15.11-8.88,27.63L933.78,772q-.13.76-.33,1.53l-6.74,26.74h-4.23c5.43-20.66,9.65-34.09,11.8-50.36.18-1.43.42-2.86.71-4.28C937.1,735.14,939.41,726.13,942.42,722.18Z" transform="translate(-0.31 0.65)"/><path class="cls-55" d="M1104.4,655.51v37.64s73.47,3.66,73.58,3.21,1.91-34.43,1.91-34.43l-28.4-37.41Z" transform="translate(-0.31 0.65)"/><path class="cls-56" d="M1110.59,539.38l-21.26,6.31-11.65,47.16,1,21.76c.54,3.52,2.82,7.2,4.07,10.54,3.9,10.43,9.61,19.67,11.62,28a11.16,11.16,0,0,0,6.34,7.57c6.24,2.73,13.68,1.1,21.5-2A188.16,188.16,0,0,0,1150,641.31a15.12,15.12,0,0,0,5.87-10.26l7.75-65.6s-19.43-22.08-19.86-22.58S1110.59,539.38,1110.59,539.38Z" transform="translate(-0.31 0.65)"/><path class="cls-57" d="M1086.18,586.37c6.53.2,10.3,3,12.82,6.93,2.77-2.51,6.13-2.22,9.9,0a5.24,5.24,0,0,1,3,0c2.25-6.94,22.72-4.65,24,2h1.86l5.74-1.88.9,2.77-7.11,1.1c3.51,16.36-15.28,22.36-23.83,10-2.32-2.91-3.59-6.86-2.58-13.07l-1.69.11c-4.47-1.73-7.81-2-9.56-.22,8.1,26.9-35.22,17.38-22.44-3.49C1079.05,587.63,1082.68,586.27,1086.18,586.37Z" transform="translate(-0.31 0.65)"/><path class="cls-56" d="M1078,590.6c4.81-5.37,17.22-2.94,20,3.36,2.15,5.65,2.58,10.35-1.13,13.51C1085.16,614.08,1070.16,602.93,1078,590.6Z" transform="translate(-0.31 0.65)"/><path class="cls-56" d="M1114.88,591.58c5-2.34,15.14-.83,19,2.92a5.56,5.56,0,0,1,1.49,2.79c1.61,7.38-.26,12.42-6.25,14.65a11.34,11.34,0,0,1-9-.47c-6.29-3.1-10.17-9.62-7.75-17A4.93,4.93,0,0,1,1114.88,591.58Z" transform="translate(-0.31 0.65)"/><path class="cls-58" d="M1200,800.07a1.23,1.23,0,0,1,0-.2V668.63l-12.8-6.36-.07.12a102.08,102.08,0,0,1-7.9,11.91,88.28,88.28,0,0,1-23.17,21.31c-1.2.75-2.4,1.45-3.6,2.11q-1,.57-2,1.08c-21.18,10.77-42.09,8.21-48.9-5.64a20.63,20.63,0,0,1-1.14-2.81c-2.2-6.78-1.45-15.76,3.46-26.75-25.92,3.26-44.16,13.48-55.5,30a72.29,72.29,0,0,0-8.72,17.5,92.77,92.77,0,0,0-3.19,11.71c-2.63,12.75-3.18,27.38-1.78,43.78l-7.09,33.52Z" transform="translate(-0.31 0.65)"/><path class="cls-59" d="M1200,799.87v-31q-2.48,14.71-4.19,31.24s1.74.09,4.16.19C1200,800.13,1200,800,1200,799.87Z" transform="translate(-0.31 0.65)"/><path class="cls-60" d="M1039.56,710.92,1046,726.2c0,22.82-2.48,48.16-6.49,73.87l-10.56.08a280.23,280.23,0,0,1,6.58-34.43C1035.38,743.68,1034.57,719.91,1039.56,710.92Z" transform="translate(-0.31 0.65)"/><path class="cls-61" d="M1104.4,665.77c3.07,22.28,24.44,27.94,51.33,18.17C1128.31,698.93,1088.2,705.7,1104.4,665.77Z" transform="translate(-0.31 0.65)"/><path class="cls-62" d="M1103.84,663.6c-31.56,42.17,45,71.07,83.87-.84l-15-9.46C1191.25,677.71,1092.87,724.87,1103.84,663.6Z" transform="translate(-0.31 0.65)"/><path class="cls-63" d="M1103.84,663.6l.56-.07a11.66,11.66,0,0,1,0,2.21c-7.05,28.11-.34,68.71,10.61,92.3,16.25-17.62,27.56-38.23,35.86-60.46a15.34,15.34,0,0,1,1-2.22c10.49-18.9,18.17-35.83,16.11-39.11l1.85-1.66c.42,6.47-1.65,12.95-5.23,19.43l-6.47,13.22-4,7a28.65,28.65,0,0,0-2.39,5.37c-7.58,23.13-26.61,53.91-36.2,60.36.34.94.39,1.72-.27,2.27v4.15h3l.09,2.2h-3.17l-.38,8.68h-2.32l.38-9-3.25-.08,0-2.12,3.5.13,0-4.2a2.75,2.75,0,0,1,.38-2.2c-8.4-16.81-13-35.87-12.94-57.61A126.52,126.52,0,0,1,1103.84,663.6Z" transform="translate(-0.31 0.65)"/><path class="cls-64" d="M1090.85,642.71q-2.49-2.78-7.51.88l.33-8.06c-13.53-5.66-26.58-11.57-27.29-23.75q-1.64-8-.64-12.45c3.74-1.06,6.41-3.5,6.92-8.73,2.19-5.14,4.76-9.53,8.19-12.28,7-36.36,27.14-56.66,67.25-52.47,16.5-.83,28.82,8.13,36.7,27.48a89.29,89.29,0,0,1,4.64,25.74c6.79,14,8.28,26.83,2.19,37.86,5.87,16.64,3.27,23.76-5.65,23.75l-.34,7c2.14,1,2.64,3,2.47,5.31a5.79,5.79,0,0,1-3.16,4.72l-4.27,2.19a14.3,14.3,0,0,1-14-.51c-6.31-3.9-8.86-9.86-7.73-17.82-14.87-5.65-18.16-21.21-11.17-45.59-4.63-18.38-7-33.9-4.37-43.14-4.73-10-11.15-10.74-19.14-2.8-6.94-6.89-13.49-6.65-19.57,2.22-3.28,5.31-4.91,17.67-6.53,30.11a38.94,38.94,0,0,1-8.44,17.38C1078,610.86,1083.63,626.31,1090.85,642.71Z" transform="translate(-0.31 0.65)"/></svg>