<?xml version="1.0" encoding="utf-8"?>
<!-- Generator: Adobe Illustrator 19.0.0, SVG Export Plug-In . SVG Version: 6.00 Build 0)  -->
<svg version="1.1" id="Layer_1" xmlns="http://www.w3.org/2000/svg" xmlns:xlink="http://www.w3.org/1999/xlink" x="0px" y="0px"
	 viewBox="-666 418.4 66.2 65.6" style="enable-background:new -666 418.4 66.2 65.6;" xml:space="preserve">
<style type="text/css">
	.st0{fill:none;stroke:#FFFFFF;stroke-miterlimit:10;}
</style>
<g id="Layer_2">
	<g id="Layer_1-2">
		<path class="st0" d="M-611.5,459.2c6.9,1,11.7,7.5,10.7,14.4c-0.7,4.4-3.6,8.2-7.8,9.9h-48.5c-7.4-3.5-10.5-12.4-7-19.8
			c3.4-7,11.6-10.3,18.9-7.4c2.2-9.2,11.4-14.9,20.7-12.8C-617.3,445.2-611.9,451.6-611.5,459.2z"/>
		<polyline class="st0" points="-656.6,456.5 -656.6,419.9 -643.9,419.9 -643.9,452.5 		"/>
		<polyline class="st0" points="-656.6,444 -653.9,444 -651.1,444 		"/>
		<polyline class="st0" points="-656.6,436 -653.9,436 -651.1,436 		"/>
		<polyline class="st0" points="-656.6,428.1 -653.9,428.1 -651.1,428.1 		"/>
		<polyline class="st0" points="-637,445.2 -637,432.3 -623.9,432.3 -623.9,443.7 		"/>
		<polyline class="st0" points="-637,432.3 -630.4,419.6 -623.9,432.3 		"/>
		<polyline class="st0" points="-613.5,452 -613.5,440.7 -603.9,440.7 -603.9,463.3 		"/>
		<path class="st0" d="M-605.3,440.7c4.3-1.9,6.2-6.9,4.3-11.1c-0.3-0.6-0.6-1.2-1.1-1.8c-1.1-1.3-2-2.7-2.9-4.1l-2.2-3.9
			c-0.5-0.8-1.6-1.1-2.4-0.6c-0.3,0.2-0.5,0.4-0.6,0.6l-2.2,3.8c-0.8,1.4-1.8,2.8-2.8,4.1c-2.9,3.6-2.4,8.9,1.2,11.8
			c0.6,0.5,1.2,0.9,1.9,1.2"/>
	</g>
</g>
</svg>
