<svg xmlns="http://www.w3.org/2000/svg" viewBox="0 0 820 309.42"><defs><style>.cls-1{fill:#ededed;}.cls-2{fill:#fff;}.cls-3{fill:#eaf3fa;}.cls-4{fill:#c99e81;}.cls-5{fill:#a8a8a8;}.cls-6{fill:#8c888c;}.cls-7{fill:#d3a484;}.cls-8{fill:#030709;}.cls-9{fill:#503824;}.cls-10{fill:#d8a880;}.cls-11{fill:#a3a288;}.cls-12{fill:#9f8863;}.cls-13{fill:#9e8662;}.cls-14{fill:#59492c;}.cls-15{fill:#997443;}.cls-16{fill:#caa26e;}.cls-17{fill:#af9671;}.cls-18{fill:#e1b081;}.cls-19{fill:#35220f;}.cls-20{fill:#b28f5f;}.cls-21{fill:#070402;}.cls-22{fill:#b9bca6;}.cls-23{fill:#a3a3a3;}.cls-24{fill:#a9ab9e;}.cls-25{fill:#867058;}.cls-26{fill:#d1a882;}.cls-27{fill:#e6bb90;}.cls-28{fill:#6e4022;}.cls-29{fill:none;}.cls-30{fill:#ce956f;}.cls-31{fill:#dca478;}.cls-32{fill:#d3a179;}.cls-33{fill:#e4b486;}.cls-34{fill:#0c0906;}.cls-35{fill:#422918;}.cls-36{fill:#382a1a;}.cls-37{fill:#ad7d51;}.cls-38{fill:#d6a676;}.cls-39{fill:#e1b57e;}.cls-40{fill:#aa9074;}.cls-41{fill:#a18b77;}.cls-42{fill:#000005;}.cls-43{fill:#c9a073;}.cls-44{fill:#d2aa78;}.cls-45{fill:#2d190f;}.cls-46{fill:#5f391e;}.cls-47{fill:#9d7136;}.cls-48{fill:#c69166;}.cls-49{fill:#d89f6b;}.cls-50{fill:#df9746;}.cls-51{fill:#d6baa1;}.cls-52{fill:#c68246;}.cls-53{fill:#da8c44;}.cls-54{fill:#e0934c;}.cls-55{fill:#eda569;}.cls-56{fill:#fcb169;}.cls-57{fill:#c96912;}.cls-58{fill:#3a140c;}.cls-59{fill:#280a02;}.cls-60{fill:#260c07;}.cls-61{fill:#ca9f67;}.cls-62{fill:#2e130c;}.cls-63{fill:#ad762a;}.cls-64{fill:#9b5016;}</style></defs><g id="Baggrund"><path class="cls-1" d="M724.55,102.72c0,.09,0,.19,0,.29q-.19,5.8-.79,11.74a.77.77,0,0,1,0,.15q-1.9,9.72-3.18,19.24a.38.38,0,0,0,0,.1c-1.36,10.06-2.19,20-2.55,29.7a.43.43,0,0,0,0,.16c-.07,1.84-.12,3.69-.15,5.52,0,.33,0,.66,0,1a296.82,296.82,0,0,0,1.69,36.62H103.16a370.23,370.23,0,0,1,3.26-60.4c0-.11,0-.22,0-.33,4.15-28.76,12.11-53.66,24.1-74.49,19.78-34.36,50.49-57.65,93.06-68.95H696A168.13,168.13,0,0,1,724.55,102.72Z" transform="translate(0 -3.06)"/><path class="cls-2" d="M724.58,99.66c0,.1,0,.19,0,.29,2.89,12.11.06,22-1,31.75,0,0-3-.55-3-.52-1.18,10.52-2,20.35-2.55,29.7a.43.43,0,0,0,0,.16c-.83,15.38,1.7,35.84,3.15,49.52L103.5,206.91a405.73,405.73,0,0,1,2.92-63.14c0-.11,0-.22,0-.33C110.3,115.11,118,90.1,130.56,69l13.28,1.7v59.19h13.33V97.09h20.7l.7,31.34h22.11L200,44.57h30.88v83.86H260V69.37h22.93v26.9h3V74h22.1l-.35,55.8h36l.35-30.53h48.77l.36,30.53H411.1l-.35-62.46H451.8l-.52,64.33h39.3l.52-25.38h19.65v26.31h48.78V106.33H589l-.35,27.37H596l.35-68.43h27.37V133.7h45.62V116.85h25.26V99.66Z" transform="translate(0 -3.06)"/><path class="cls-2" d="M469.44,63.48h82.94c-6.32-7.73-17.78-11.5-37.79-8.65C494,42.27,479.71,47.26,469.44,63.48Z" transform="translate(0 -3.06)"/><rect class="cls-1" x="129.87" y="92.18" width="4.83" height="10.92"/><rect class="cls-1" x="384.96" y="99.37" width="3.98" height="10.04"/><rect class="cls-1" x="204.09" y="65.83" width="3.98" height="10.04"/><rect class="cls-1" x="264.26" y="94.34" width="3.98" height="10.04"/><rect class="cls-1" x="224.19" y="47.54" width="3.98" height="10.04"/><rect class="cls-1" x="299.63" y="77.67" width="3.98" height="10.04"/><rect class="cls-1" x="348.16" y="112.13" width="3.98" height="10.04"/><rect class="cls-1" x="415.9" y="77.67" width="3.98" height="10.04"/><rect class="cls-1" x="443.88" y="68.99" width="3.98" height="10.04"/><rect class="cls-1" x="494.66" y="107.11" width="3.98" height="10.04"/><rect class="cls-1" x="581.95" y="107.11" width="3.98" height="10.04"/><rect class="cls-1" x="602.69" y="82.69" width="3.98" height="10.04"/><rect class="cls-1" x="616.14" y="66.91" width="3.98" height="10.04"/><rect class="cls-3" x="671.99" y="123.61" width="3.98" height="10.04"/><rect class="cls-1" x="702.11" y="102.08" width="3.98" height="10.04"/><rect class="cls-1" x="684.44" y="118.59" width="3.98" height="10.04"/><rect class="cls-1" x="136.9" y="73.16" width="3.15" height="9.03"/><rect class="cls-1" x="171.44" y="97.64" width="3.15" height="7.77"/></g><g id="David"><path class="cls-4" d="M41.77,209.15v13a14.77,14.77,0,0,1-5.5,3.9c-2.15.82-3.68,2.13-3,4.68,1.12,19.56,57.38,26.08,63.38,2.85L96,230.45c-1.65-1.63-3.92-3.57-6.46-5.65a115.26,115.26,0,0,1-.06-19.56Z" transform="translate(0 -3.06)"/><path class="cls-5" d="M119.62,244.17v67.77H0v-66.2c10.58-6.85,21.26-11.26,27-14.42.83-.46,1.56-.89,2.17-1.3,15.09,25.07,57,29.34,71.13,3.21l1,.56Z" transform="translate(0 -3.06)"/><path class="cls-6" d="M27,231.32a27,27,0,0,1,10.83-6,10.33,10.33,0,0,0-4,3.21c1.34,20.14,54.75,27.74,61.55,3.25a1.83,1.83,0,0,0-.68-2,30.39,30.39,0,0,1-5.16-4.91L102,234.3C95.24,264.74,39.36,259.89,27,231.32Z" transform="translate(0 -3.06)"/><path class="cls-7" d="M36.15,191.19c-2.64-.91-3.89-3-4.34-5.79a48.74,48.74,0,0,1-1-13.94L35,168.39l3.21-21.8,10.9-11.51,15.33-2.32,24.36,6.42,10.76,16.07-4.28,26.87c1-5.06,3-7.59,6.64-4.37a29.26,29.26,0,0,1-4,16.55,12.92,12.92,0,0,1-3.21,3.1c-11.47,23.13-21.57,30.34-31,30.1C50,224.86,37,213.87,36.15,191.19Z" transform="translate(0 -3.06)"/><path class="cls-8" d="M35.21,169.74l3.26-1.3c1.16,0,1.88,1,2.18,2.89.38,5.83,1.36,7.26,5.18,7.91a32,32,0,0,0,12.86.35,3.41,3.41,0,0,0,2.33-1.7l3-5.45c.65-1.48,4-1.31,4.54.35L70.61,179a3.4,3.4,0,0,0,1.8,2,11.21,11.21,0,0,0,2,.65,28.39,28.39,0,0,0,12.28.68,5.2,5.2,0,0,0,3.91-2.75A17.72,17.72,0,0,0,92,175.63c.64-1.49,1.41-2.64,2.75-2.28L95,170a50.05,50.05,0,0,0-12.88-3.12l-.84-.07a42.48,42.48,0,0,0-8.38.4,4,4,0,0,0-1.4.52c-3.13,1.87-6,1.88-8.52-.34a4.14,4.14,0,0,0-.86-.57l-.86-.43a11.9,11.9,0,0,0-2.64-1L56.72,165a12.82,12.82,0,0,0-2.62-.36l-7.18-.28H46.1l-7.07.35-3.82,1.28Z" transform="translate(0 -3.06)"/><path class="cls-9" d="M36.15,181.25,37,170.07l4.43-21.52c1.36-7.78,6.23-11.75,13.88-12.72a105.53,105.53,0,0,0,17.61,2.52,100.37,100.37,0,0,0,18.86,10.06c3.17,4.34,3.28,12.66,3.08,21.38l-2,20.12h1c1.29-10.17,3.58-16,8.09-12.3,2.11-1.36,2.43-3.82,1.83-6.84-1.6-1.33-1.66-6,.64-15.93-6.2-17.83-15.15-27-27.36-25.86-16.15-3.88-26.88-.62-32.95,8.81-16.07,12.57-11,12.85-12.86,33.54C34.16,172.85,35.66,176.35,36.15,181.25Z" transform="translate(0 -3.06)"/><path class="cls-9" d="M35.88,178.59c4,12.44,8.78,26.22,13.34,32.89a18.28,18.28,0,0,0,24.09,5.62c10-5.66,16.73-15,19.57-27.19h1l.33,7.55a7.2,7.2,0,0,1-.53,2.52c-4.19,11.55-12,21.68-23.7,26.77-3,1.32-9,1.28-11.92-.18-13.23-6.52-20.94-16.16-22.15-36.28a4.84,4.84,0,0,1,0-.76Z" transform="translate(0 -3.06)"/><path class="cls-7" d="M46.57,165.18c-3.12-.23-4.14.82-4.32,3.65q0,.4,0,.81a28.91,28.91,0,0,0,.4,5.48c.36,2,.86,2.48,2.79,3.12,1.39.45,6.27,1,12.3.71,1.17-.08,2.72-1.5,3.19-3.22,0-.12.07-.25.11-.37l1.24-3.68a3,3,0,0,0,.17-.89c.1-2.35-.75-3.8-2.69-4.25A52.35,52.35,0,0,0,46.57,165.18Z" transform="translate(0 -3.06)"/><path class="cls-7" d="M87,168.46c3.18.2,4,1.38,3.83,4.24a5.35,5.35,0,0,1-.07.56,28.72,28.72,0,0,1-1.16,5.5c-.62,1.91-1.18,2.32-3.2,2.68-1.44.26-6.41.19-12.39-.95a4.18,4.18,0,0,1-2.77-3.59l-.06-.38-.66-3.32a5.44,5.44,0,0,1,.08-2.63,3.22,3.22,0,0,1,3-2.54A53.8,53.8,0,0,1,87,168.46Z" transform="translate(0 -3.06)"/></g><g id="Nikolaj"><path class="cls-10" d="M146.18,207c5.27,9.1,11.37,19.89,10.1,23.26,2.68,6.22,9.27,6.79,18.37,3.73l7.73-4.5,20-16.68c-1,0-1.81-.9-2.57-2.19a105.62,105.62,0,0,1-1.4-17.67l-1.29-1.21Z" transform="translate(0 -3.06)"/><path class="cls-11" d="M97.47,312.21a203.36,203.36,0,0,1,11.92-38c-1-13.44,5.9-28,28.36-44.8l14.23-12c2.31,2.71,3.82,7.27,4.53,11.67a7.18,7.18,0,0,0,5.33,5.84c2.67.67,6.16.57,10.25-.08a13,13,0,0,0,4.43-1.57c5.7-3.29,9.72-7.16,14.51-11.19l10.64-8.59c3-3,6.26-4.16,9.77-3.12l10.85,5.69,7.61,10v86.14Z" transform="translate(0 -3.06)"/><path class="cls-12" d="M146,218.88c-10.47,3.87-10.82,8.79-4.51,14.39,4,2.6,12.85,5.38,21.18,7.95l2.42-1.5-20-11.6C142.63,225.85,142.81,222.8,146,218.88Z" transform="translate(0 -3.06)"/><path class="cls-13" d="M150.43,215.44c-4.78,1.31-6.35,5.1-5.63,10.66a3.84,3.84,0,0,0,1.46,2.57A114.66,114.66,0,0,0,157,235.53c-3-6.15-6.19-12.65-7.59-16.14a2.79,2.79,0,0,1,.16-2.39Z" transform="translate(0 -3.06)"/><path class="cls-14" d="M145.24,219.9q-4.23,6.16,1.32,9.08c-1.79-1.45-2.53-4.13-1.32-9.08" transform="translate(0 -3.06)"/><path class="cls-15" d="M150.43,215.44a24.6,24.6,0,0,1,5.22,9.45c-1.05,1.83-.85,4.62,0,7.92C153,226.94,146.16,218.78,150.43,215.44Z" transform="translate(0 -3.06)"/><path class="cls-16" d="M155.58,225.05l-1.05,2.29a3.68,3.68,0,0,0-.42,1.37,12.4,12.4,0,0,0,.72,3.11,11.15,11.15,0,0,0,4,5.16c1.7,1.12,4.34,1.91,6.25,2.74l9.16-5.41C162.91,235.93,158.8,236.21,155.58,225.05Z" transform="translate(0 -3.06)"/><path class="cls-12" d="M161.09,242l51.21-31.5c7-2.72,9.67,1,10,5.38,4.88-1.7,7.75-.57,7.57,4.87v5.37c-8.29-3.34-39.55,9.48-57.34,17.66a2.15,2.15,0,0,1-1.09.2l-10-.6A.74.74,0,0,1,161.09,242Z" transform="translate(0 -3.06)"/><path class="cls-15" d="M200.34,215.44c.23-.83.68-2.58-.58-3.2l-.51-4.18,1.17.68c1.89-2.13,4.26-1,6.91,2A28.55,28.55,0,0,0,200.34,215.44Z" transform="translate(0 -3.06)"/><path class="cls-17" d="M179.9,231.23c9.68-8.66,19.24-16.69,25.81-21.2a10.44,10.44,0,0,1,6.59.5C205.19,216.82,192.78,223.76,179.9,231.23Z" transform="translate(0 -3.06)"/><path class="cls-18" d="M140.81,175.1c-.26,3.13-.53,6.25-.8,9.38a14.85,14.85,0,0,0,.17,3.88A70.24,70.24,0,0,0,148,210.58a13.44,13.44,0,0,0,6.45,5.71c8,3.36,16.62,3,25.93-1.61a25.21,25.21,0,0,0,8.17-6.44,45.73,45.73,0,0,0,8.83-15.57c2.54,3.18,5.91,1.25,7.41-5.27a104.68,104.68,0,0,0,1.29-11.24c.08-3.58-.19-6.48-1.5-7.3-1.5-.26-2.39.06-2.87.78L192.39,152,174.63,139.5l-20.84,5.65-12.1,10.1Z" transform="translate(0 -3.06)"/><path class="cls-19" d="M140.54,177l2.73-16.19c5,1.39,11.83-.07,20.76-4.72,4.1,5.15,9.69,5,17.26-2.37a10.66,10.66,0,0,0,8.45,2.3,19.44,19.44,0,0,0,5.37,10.67c.48,4.7,1.3,8.37,2.51,10.88,1.77-4.88,4-8.35,7-8.88a66,66,0,0,1,1-10.74c-1.58-14.25-9.81-23.73-26.35-27.21-14.83-1.89-26.52,1.28-34,11.17-7.36,4.44-8.17,13.43-5.16,25.06Z" transform="translate(0 -3.06)"/><path class="cls-20" d="M153.36,236.17q1.54-2.32,3.08.93c-3,18.11-7.17,36.85-13.17,53.28,2.24,3,2.36,4.56-1.65,3.44a34,34,0,0,1-2.79-3.29c-.74-2.38-.12-3.43,2.22-2.8a100.45,100.45,0,0,0,7.44-23.7C150.86,253.07,153.71,241,153.36,236.17Z" transform="translate(0 -3.06)"/><path class="cls-20" d="M171.91,237.89a2.48,2.48,0,0,1,2.51.79,23.11,23.11,0,0,0-4.8,12.53c-.82,7.45-3.12,17.78-5.66,28.57l-4.29,15.54c1.82,2.21,1.61,3.79-1.44,4.52-1.83-.95-3.1-2.13-2.93-3.94a2,2,0,0,1,2.15-2.29l7.87-29.44,2.72-17.9C169.07,243,170.19,239.84,171.91,237.89Z" transform="translate(0 -3.06)"/><path class="cls-19" d="M150.08,194.76l9.94-3.1a6.7,6.7,0,0,1,4.06-.13l14.23,4a1.77,1.77,0,0,0,2.15-1.09h0a1,1,0,0,0-.64-1.29l-14.55-4.43a9.27,9.27,0,0,0-5.47,0l-9.23,2.89a1.77,1.77,0,0,0-1.17,1.19,1.43,1.43,0,0,0,.2,1.19l.48.72" transform="translate(0 -3.06)"/><path class="cls-19" d="M143.08,199.59c13.54,19.45,52.6,10,54.54-22.55C201.27,223.9,155.65,245.48,143.08,199.59Z" transform="translate(0 -3.06)"/></g><g id="christian"><polygon class="cls-21" points="284.66 242.21 284.53 242.56 283.52 245.42 283.52 245.42 280.99 252.57 261.45 307.72 261.27 308.23 261.1 308.72 261.09 308.73 261.08 308.76 216.26 308.76 216.26 308.72 216.32 308.23 216.38 307.72 223.16 247.31 230.52 224.52 231.19 222.44 244.02 217.03 279.95 239.29 280.24 239.47 284.66 242.21"/><polygon class="cls-22" points="315.32 255.12 315.32 308.72 295.63 308.72 295.49 308.23 295.35 307.72 286.14 274.8 314.68 255.54 315 255.33 315.32 255.12"/><path class="cls-23" d="M286.15,232.14,264.87,267.2l-15,44.58,47.53.05c-1.67-4.25-.73-9.16,1.9-14.5-1-9.22-.83-17.34,3.86-21.47,4.73-7.7,8.56-15.14,12.14-17.68V233.53Z" transform="translate(0 -3.06)"/><path class="cls-22" d="M190.81,311.78c-.07-15.46,2.24-30.71,10.42-45.45a84.79,84.79,0,0,1,6.34-23.79l-2,24L201.43,296l1.86,5.35-2.37,10.39Z" transform="translate(0 -3.06)"/><path class="cls-24" d="M286.15,249.46a12,12,0,0,1-4.8,6,3.35,3.35,0,0,1-.36.21,2.84,2.84,0,0,1-2.32.08c-.78-.32-1.36-.7-1.51-1.24l-.34-2.37c-.26,1.58-4.24,7.65-7.35,12.67a19.83,19.83,0,0,1-1.72,6.55,68.85,68.85,0,0,1-3.67,14.9c-.18,5.69-1.17,9-2.75,10.54-.57,4.7-3.22,9.37-6.43,14l-.35.51-.35.49h0l0,0H243.42l0-.05.27-.49.26-.51a28.66,28.66,0,0,0,2.77-11c.86-2.72,2.64-4.75,3.09-7.11,1.13-6,3.42-9.84,5-9.68L263.63,265c0-3.43,4.46-10.58,7.62-13.18l5.17-6.9,3.17-2,.65-.42,8.83-5.6a66.73,66.73,0,0,1-4.54,8.69,30.13,30.13,0,0,1-2.36,3.25l.55.31a4.5,4.5,0,0,1,.8-.7h0C284.49,247.84,285.38,248.09,286.15,249.46Z" transform="translate(0 -3.06)"/><path class="cls-25" d="M285.22,200.7c4.09,2.76,6.49,6.13,7.3,10.07,5.43,4.18,9.29,8.72,11.43,13.65,2,.25,4,.48,5.86.81a6.75,6.75,0,0,1,5.51,6.66v1.64a39.11,39.11,0,0,0-19.41,5.41,3,3,0,0,1-2.18.29c-3.42-.85-5.38-.27-7.08.8-2.6,1.65-4.57,4.43-10.23,4.93l7.9-21.86a15.52,15.52,0,0,0,.87-7.17A80.6,80.6,0,0,1,285.22,200.7Z" transform="translate(0 -3.06)"/><path class="cls-23" d="M208.66,239.43c6.53-7,14.68-10.57,23.77-12.23l1.08,18.38v2.93c2.76,0,3.91,1.47,3.2,4.74V259l-1.24,4.17-7.4,15.22a17.56,17.56,0,0,0-.62,4.81,17.24,17.24,0,0,1-2.19,7.27c-.19,6.22-2.52,13.62-5.43,21.34h-19.7l.34-10.69-1.51.61c-1.44-4.14.1-12.18,2.89-21.83a54.59,54.59,0,0,1,3.77-13.25c-.63-5,.49-14.56,1.76-24.51A4.81,4.81,0,0,1,208.66,239.43Z" transform="translate(0 -3.06)"/><path class="cls-26" d="M243.86,213.47c.83,6.31-.08,12.88-2.2,19.64a11.39,11.39,0,0,0-.55,3.38c-.14,17.37,14.82,16,36.15,6.79l7.26-20.63a17.71,17.71,0,0,0,.94-7.36c-.7-8.36-.57-15.61.69-21.3Z" transform="translate(0 -3.06)"/><path class="cls-27" d="M235.74,202.33q7,12,14,15.44a9.4,9.4,0,0,0,6.26.67c15.35-3.65,27.11-10.44,30.21-24.79,3.59,1.13,6.28-1.6,8.18-7.7,4.1-8.67,4.62-14.59-1.85-15.13l-12.67-26.77L237,140.69,230.73,171l1.08,10.91.85,10.67A23.18,23.18,0,0,0,235.74,202.33Z" transform="translate(0 -3.06)"/><path class="cls-28" d="M231.66,181.88c1.7-20.77,3.67-40.16,10.82-33.64a1.66,1.66,0,0,0,2.07.12l1.82-1.31a.66.66,0,0,1,1,.45l1.4,9.85a.35.35,0,0,0,.66.12l2.23-4a.46.46,0,0,1,.84.07l2.17,6.33a.12.12,0,0,0,.24,0v-4.55a.14.14,0,0,1,.25-.09l3.69,4.61a.14.14,0,0,0,.26-.09v-5.15a.14.14,0,0,1,.23-.1l6.46,6a.11.11,0,0,0,.17-.12l-2.4-4.94a.11.11,0,0,1,.14-.14l6.05,2.9a.22.22,0,0,0,.32-.2v-3.42a.13.13,0,0,1,.23-.08l3.22,3.56a.34.34,0,0,0,.51,0l3-3.46a.23.23,0,0,1,.35,0,19.49,19.49,0,0,1,3.76,8.58,5.31,5.31,0,0,0,.74,1.75l2.55,3.84a6,6,0,0,1,1,3.05l.81,15a.12.12,0,0,0,.23,0l4.14-12.43a.07.07,0,0,1,.14,0V179a.06.06,0,0,0,.12,0c.38-2.22,1.5-8.59,1.89-7.44a21,21,0,0,1,.65,2.85.12.12,0,0,0,.23,0l.67-2.92a.19.19,0,0,1,.31-.1l2.08,1.62c2.05-18.56-.52-34.95-19.17-43.78a11.48,11.48,0,0,0-5.19-1.09,38.45,38.45,0,0,1-12.06-1.62,11.07,11.07,0,0,0-4.89-.29C223.12,131.62,227.94,160.29,231.66,181.88Z" transform="translate(0 -3.06)"/><path class="cls-25" d="M233.82,245.06l10.35-23.58a24.29,24.29,0,0,0,.52-7.21l-1.34-1.42a19.4,19.4,0,0,0-2.94,4,22.9,22.9,0,0,0-1.9,1.56c-6.63,1.48-10.2,6-11.79,12.6A38.65,38.65,0,0,0,233.82,245.06Z" transform="translate(0 -3.06)"/><rect class="cls-29" x="126.95" y="308.72" width="187.73" height="0.04"/></g><g id="Sandra"><path class="cls-30" d="M334.23,193.41l1.35,30.27s34.63.74,34.47,0,.9-34.23.9-34.23Z" transform="translate(0 -3.06)"/><path class="cls-31" d="M346,147.11a39.83,39.83,0,0,0-17,12.92,4.15,4.15,0,0,0-.77,2.06L328,166a2.63,2.63,0,0,1-.06.39l-1,4.9a7.92,7.92,0,0,0-.17,1.94,101.71,101.71,0,0,0,1.39,11.75c1.28,12.31,10,21.76,17,21.76,7.71.05,14.05-1.88,18-7.34l10.5-14.27-1.33-26.47c-7-4.74-13.71-10-19.36-11.82A9.74,9.74,0,0,0,346,147.11Z" transform="translate(0 -3.06)"/><path class="cls-32" d="M405.49,230.86c-6.65.24-10.95,6.54-13.73,16.72v0c-.18.65-.35,1.33-.52,2-.38,1.57-.73,3.23-1.05,5-.33.94-.65,1.87-.94,2.8a93.58,93.58,0,0,0-2.75,10.7l-.09.46c0,.22-.09.45-.13.67-.64,3.45-1.09,6.85-1.41,10.21-.09,1.54-.14,3.09-.13,4.65A92.64,92.64,0,0,0,386,298.4l-.7,13.4H328.85l34-64.74.47-.9,18.08-27.95C387.53,219.72,396,224,405.49,230.86Z" transform="translate(0 -3.06)"/><path class="cls-32" d="M324.75,216.55l-.83,25.51-.39,12.09-6.44,26.73-4.43,25.28-.87,5.64,0,.13-4.32,0-11.16,0-5.88,0v-.05l1.82-24.38,4.4-22.54c-1.34-19.18,1.13-33.32,8.59-40.87C311.07,219.59,317.45,216.74,324.75,216.55Z" transform="translate(0 -3.06)"/><path class="cls-33" d="M368.68,255.08,331.44,311.8h-8l0,.21-3.31-.08v-.13L322,288l30.62-50.79,1.69,1.62,8.59,8.26,5.51,5.3A2.14,2.14,0,0,1,368.68,255.08Z" transform="translate(0 -3.06)"/><path class="cls-33" d="M412,233.63V311.8H385.3l.7-13.4a67,67,0,0,1-1.27-14.32,88.66,88.66,0,0,1,1.54-14.86c0-.22.08-.45.13-.67s.05-.29.08-.44v0l2.75-10.7,2-7.76.52-2v0c2.55-9.76,6.52-16.59,13.73-16.72l-24.07-12.65,2.11-2.33,26,15.42A7.6,7.6,0,0,1,412,233.63Z" transform="translate(0 -3.06)"/><path class="cls-34" d="M363.82,219.69l-9.54,19.11-3.75,7.53-13.36,26-6.38,12.86-4.05,11c-1.3,5-2.38,10.18-3.31,15.56l0,.21a1.42,1.42,0,0,0,0,.2L307.44,312v-.18l.18-2.43h0l.83-11.18v0l.63-8.48a48.71,48.71,0,0,1,3.11-10.17h0l.27-.52,5.94-15.65,3.16-8.31.38-9.48,1.95-3.49,13.66-24.51,3.41,1.11a2.91,2.91,0,0,0,1.87,1.38,2.08,2.08,0,0,1,1.85-1.72c1.76,1.66,3.58,1.72,5.44.06a8.47,8.47,0,0,1,4.71,0c1.19,2.8,2.1,3.15,2.77,1.33A7.39,7.39,0,0,1,363.82,219.69Z" transform="translate(0 -3.06)"/><path class="cls-35" d="M349.65,146.6c7.51.55,14.91,9.36,19.85,15.23-.62-8.56-3.55-20.45-15.21-27.76C351.5,137.28,348.93,141.34,349.65,146.6Z" transform="translate(0 -3.06)"/><path class="cls-36" d="M355.69,131.15c11-6.3,25.18,14.53,29.13,41.45,2.58,26.49.87,48.7-4.47,67.28a13.34,13.34,0,0,1-2.65,5c-3.22,3.75-6.85,5.49-10.81,5.55a1.33,1.33,0,0,0-1,.54c-2.54,3.42-6.76,5.18-12.05,5.89h-1.59a.28.28,0,0,1-.13-.53c3.26-1.71,5.68-3.49,6.47-5.43a.26.26,0,0,0-.24-.36H351.1a.12.12,0,0,1-.06-.23,2.37,2.37,0,0,0,1.38-2.59.34.34,0,0,0-.33-.29l-4.87-.1a.3.3,0,0,1-.22-.49l2.93-3.44a.21.21,0,0,0-.21-.34l-2.73.72a.18.18,0,0,1-.21-.26l1.24-2.39a.18.18,0,0,0-.14-.27l-4.82-.46a.22.22,0,0,1-.09-.41c8.26-4.91,15-13.31,20.87-24a18.53,18.53,0,0,0,2.17-7.14c.66-7.41,1.68-18.79,3.69-31.57a34.63,34.63,0,0,0,.38-6.75c-.66-16.52-5.86-25.38-16.45-35.35Z" transform="translate(0 -3.06)"/><path class="cls-33" d="M322,245.55l-.27,6.64a16.37,16.37,0,0,1-1,4.94l-2.29,6.21-6.21,16.17h0l-2.31,7.18a12.07,12.07,0,0,0-.53,2.51l-.9,9v0a87.07,87.07,0,0,0-.83,11.18h0l-.18,2.43v.11l-11.16,0v-.07c-.54-21.39,0-43,13.82-67.8Z" transform="translate(0 -3.06)"/><path class="cls-36" d="M349.65,146.6c.14-5.86,4.27-11.46,6-15.45-11.16-5-24.12,5.65-30.11,21.63-4.79,13.08-6,28.14-5.44,44.19l-.66,17c-.18,13.73-5,22.53-13.54,27.29a1.41,1.41,0,0,0-.58,1.86c4.66,9.64,10.9,10.55,18.25,5.35a1.85,1.85,0,0,1,2.2.07c6.09,4.94,9.83,3.38,12.62-.87a4.8,4.8,0,0,0,.77-2.88l-.69-12.59a.11.11,0,0,1,.22,0l1,4.25a.13.13,0,0,0,.25,0l-2.81-33.14c-3.63-3.05-5.66-7.26-7.58-12.46-.8-3.84-1.65-7.92-2.22-12.62a27.39,27.39,0,0,1,0-6.71A61.72,61.72,0,0,1,328.9,163a14,14,0,0,1,2.39-4.93C335.43,152.56,342.33,147.67,349.65,146.6Z" transform="translate(0 -3.06)"/><path class="cls-29" d="M323.43,311.8l0,.21a1.42,1.42,0,0,0,0,.2L307.44,312v-.07l-11.16,0-5.88,0v-.05Z" transform="translate(0 -3.06)"/></g><g id="Søren"><polygon class="cls-37" points="472.95 183.83 472.41 189.45 474.46 201.31 476.19 202.09 474.79 189.45 476.19 187.22 472.95 183.83"/><path class="cls-38" d="M431.43,201.73l.47,13.35c-14,35.43,40.43,26.83,46.12-3.77l-3.45-3.89-1.37-16.57Z" transform="translate(0 -3.06)"/><path class="cls-39" d="M432.93,206.2c-7.6-7.6-11.35-17.34-10.21-29.82l5-27.35c10.39-15.07,35.51-17.07,44.15.59,2.87,8.4,2.49,19.47,2.54,27.6a20.26,20.26,0,0,1,3-5.94c1.93-2.31,3.58-3,4.49.54a11.73,11.73,0,0,1,0,5.89,44.06,44.06,0,0,1-1.14,5.13,15.35,15.35,0,0,1-1.51,3.13c-1.82,4.57-3.67,5.64-5.56,2.54-2.57,15-13.19,20.39-27.77,22A20.72,20.72,0,0,1,432.93,206.2Z" transform="translate(0 -3.06)"/><path class="cls-40" d="M484.38,225.67l13.48,1.15a4.74,4.74,0,0,1,4.35,4.73V312H484.83l-7.24-35.42Z" transform="translate(0 -3.06)"/><path class="cls-41" d="M402.57,222c7.87-4,18.05-7.95,29.33-11.79-11.91,40.3,23.55,37.27,49.58,1.23,4.09,2,10.13,6.7,16.9,12.45a10.85,10.85,0,0,1,3.83,8.28v12c-5.68,5.94-11.27,17.72-16.84,31.16-1.2,6.7.89,22.31,2.49,36.61H395.71l-10.15-13.06V270.29l3.56-29.62,3.78-10.57L397,226A22.78,22.78,0,0,1,402.57,222Z" transform="translate(0 -3.06)"/><path class="cls-40" d="M374.43,312h21.93c-1.41-11.06-3.7-24.68-6.39-39.46a43.72,43.72,0,0,1-.22-14.3c.87-5.82,1.73-11,2.56-15.33a37,37,0,0,0,.57-4.67l.51-8.81C384.77,239.87,379.3,273.68,374.43,312Z" transform="translate(0 -3.06)"/><path class="cls-40" d="M431.9,210.22c-.39,1.21.38,3.27.11,4.39-8.18,34.26,32.61,24.89,44.79-2.17a2.43,2.43,0,0,0-.29-2.49l-1.95-2.52a.42.42,0,0,1,0-.5v0c2.24,1,5.57,2.54,6.91,4.54C454,257.76,414.53,242.65,431.9,210.22Z" transform="translate(0 -3.06)"/><path class="cls-37" d="M474.19,180.84l1.78-.75.92-2.81,2.22-1.19L478,172.34a2.19,2.19,0,0,1,2.06-2.63c.59,0,.74-.23,1.24.33,3.52-8.62-.15-17.66-6.37-26.85.11-2.78-1.7-5.09-5.51-6.91-.82-2-2.66-3.42-5.94-3.94-4.47-2.25-8.69-4-12.21-4.16-2.76-1.61-5.41-2.43-7.72-.76l-5.3,3.51a5.16,5.16,0,0,1,.54-4.43c-2.63-.13-3.89,2.53-4.59,6.32a20.29,20.29,0,0,1-1.13-5.45c-1.69,2.07-2.16,4.74-1.57,7.94-8.8,6.1-9.72,11.25-8.53,16.15-2.19,6.46-2.05,11.92-.42,16.74l-1.2,4.81,1.51,2.7.81.27L426,159.67a48.41,48.41,0,0,0,3.62-11.51,18.45,18.45,0,0,1,8.75-7.4c3.2,5.39,7.86,5.61,14.42-.86,4,4.07,8.54,6.5,13.78,6.75a22.13,22.13,0,0,0,6,7.35c-2.92,1.38-2.31,5.64,1.51,12.53Z" transform="translate(0 -3.06)"/></g><g id="Camilla"><g id="Camilla-2" data-name="Camilla"><path class="cls-42" d="M463.35,311.81c1.16-11.09,7.64-20.92,13.19-28.27l0-.06,0-.07c14.05-37.83,30.42-55.39,53.07-57h.09l36.87-16.72,33.42,21.73a13.33,13.33,0,0,1,6.07,11.2v69.15Z" transform="translate(0 -3.06)"/><path d="M566.6,210.29l33.19,21.59a12.81,12.81,0,0,1,5.84,10.78v68.65H463.91c1.3-10.74,7.61-20.29,13-27.47l.09-.11.05-.14c14-37.62,30.21-55.09,52.63-56.63h.18l.17-.08,36.54-16.58m.09-1.13L529.64,226c-26.6,1.83-41.87,26-53.5,57.28C469,292.72,463.71,302,462.8,312.31H606.63V242.66a13.84,13.84,0,0,0-6.3-11.61l-33.64-21.89Z" transform="translate(0 -3.06)"/><path class="cls-43" d="M529.64,217.79a16.75,16.75,0,0,1,2.64,8c-58.36,56.57-31.34,73.09,39.28,14.23a97.56,97.56,0,0,1,8.44-6.27c8.07-5.36,9.42-10.24,2.31-14.51-7.28-3.79-8.56-11.55-6.44-24.41Z" transform="translate(0 -3.06)"/><path class="cls-44" d="M520.27,180c-6.9,10.17-2.13,23.19,9.37,37.84,6.23,6.86,14.13,6.61,22.12-.69,7-4.59,13.72-11.81,21.33-19.55,1.89,1,3.84-.24,5.83-4a29.35,29.35,0,0,0,3.37-12.12c.46-7.05-6.19-6.68-8.87,2.12,3.06-42.36-54.71-53.26-53.84-14.46A84.22,84.22,0,0,0,520.27,180Z" transform="translate(0 -3.06)"/><path class="cls-45" d="M519.58,169.09c1.26-39.22,55.68-25.27,53.85,14.4,1.75-6.71,8.69-10.52,8.8-2.67,2.16-10.36,2.94-17.55-1.71-27C583.7,142.2,584,132.3,573,129c3.78-12.1-10.51-16.81-22.29-6.86-4.47,1.5-6.66,5.9-7.77,11.66C522.74,135.92,519.43,158.83,519.58,169.09Z" transform="translate(0 -3.06)"/><path class="cls-42" d="M552.49,191.33a12.18,12.18,0,0,1-12.18-10.26V181l-.07-.09a2.18,2.18,0,0,0-1.76-1.07,2.88,2.88,0,0,0-2,1l-.13.13,0,.18c-.65,6.78-5.45,9.19-9.36,9.19a9.62,9.62,0,0,1-9.66-8.25,6.35,6.35,0,0,0-1.71-4.08v-2.23l2.73-.93-.29.62.9-.12a32.3,32.3,0,0,1,4.3-.3,24.89,24.89,0,0,1,13.54,3.86l.16.1.19,0a6,6,0,0,1,1.14-.1,8.61,8.61,0,0,1,1.39.12l.15,0,.14-.07a29,29,0,0,1,12.47-2.77,37.46,37.46,0,0,1,10.84,1.71l.09,0,9.35-.77,0,.23-9.12,2.44h-.13c-1.19,0-1.58,1.59-1.77,2.79C561.42,189.05,556.56,191.33,552.49,191.33Z" transform="translate(0 -3.06)"/><path d="M523.26,175.5a24.34,24.34,0,0,1,13.28,3.79l.32.2.38-.07a4.9,4.9,0,0,1,.78-.09,3.77,3.77,0,0,0-1.87,1.1l-.26.26,0,.36c-.62,6.45-5.16,8.74-8.86,8.74a9.13,9.13,0,0,1-9.16-7.78,7.15,7.15,0,0,0-1.71-4.26v-1.66l1.28-.44-.18.39,1.81-.25a32.82,32.82,0,0,1,4.23-.29m29.18,1.14a37.18,37.18,0,0,1,10.7,1.69l.18.06.19,0,5-.41-4.91,1.32h-.08c-1.76,0-2.14,2.42-2.26,3.21v.11c-.29,6.07-4.7,8.24-8.74,8.24A11.67,11.67,0,0,1,540.81,181l0-.24-.14-.19a2.92,2.92,0,0,0-1.57-1.2l.53.08.31.05.29-.13a28.44,28.44,0,0,1,12.25-2.73M519.3,174l-4.18,1.42v2.81a5.86,5.86,0,0,1,1.72,3.94A10.09,10.09,0,0,0,527,190.79c4.64,0,9.23-3.07,9.86-9.64a2.45,2.45,0,0,1,1.62-.86,1.68,1.68,0,0,1,1.35.86,12.68,12.68,0,0,0,12.67,10.68c4.92,0,9.44-2.94,9.74-9.2.24-1.51.65-2.36,1.27-2.36l.16,0,9.63-2.58-.12-1.14-9.74.81a37.82,37.82,0,0,0-11-1.74,29.41,29.41,0,0,0-12.68,2.82,9.12,9.12,0,0,0-1.47-.13,6.39,6.39,0,0,0-1.23.11,25.46,25.46,0,0,0-13.8-3.94,33.65,33.65,0,0,0-4.36.3l.4-.85Z" transform="translate(0 -3.06)"/><path class="cls-44" d="M517.7,177.46c1.11-4.06,16-1.86,17.52,2.49C538.25,191.35,515.92,194.9,517.7,177.46Z" transform="translate(0 -3.06)"/><path class="cls-44" d="M541.79,181a2.41,2.41,0,0,1,.76-1.74c3.67-3.36,17.57-3.54,18.25.37C564.7,194.09,541.75,194.35,541.79,181Z" transform="translate(0 -3.06)"/></g></g><g id="Tobias"><path class="cls-46" d="M676.14,183.17l4.43,6.06-2.21,21.28A118.3,118.3,0,0,1,676.14,183.17Z" transform="translate(0 -3.06)"/><path class="cls-47" d="M680.91,214.5c3.64-1.68,7.33-1.22,11,0a30.2,30.2,0,0,0-7.8,8.71A77,77,0,0,1,680.91,214.5Z" transform="translate(0 -3.06)"/><path class="cls-48" d="M615.84,209.57c.22.22,61-15.08,61-15.08a97.68,97.68,0,0,0,10.8,36L644.32,252.3c-3.93-1.53-6.7-4.67-7.83-10.11C636.86,234.72,620.75,220.52,615.84,209.57Z" transform="translate(0 -3.06)"/><path class="cls-49" d="M615.23,135c-4.68,7-5.4,19.5-4.83,33.83.17,1.72-.26,5.79-.82,10.35.63,10.87,1.41,17.61,2.31,21.43a63.3,63.3,0,0,0,8.34,16.57c11.82,9.74,25.31,7,39.87-3.81a118.59,118.59,0,0,0,16.7-18.92l.88-7.25c2.56,3.55,7.47,2.52,7.47-3.3q5-15.25,1.42-24.38c-7.69-3.24-10.35,2.07-10.1,12.3l-6.59-37.67L644.73,126Z" transform="translate(0 -3.06)"/><path class="cls-46" d="M610.46,167.36c-.93-14.76.17-26.44,5.27-32.07,2.38,1.93,4.8,3.33,7.29,3.51,1.16,11,9.28,9.65,20,3.74a13.92,13.92,0,0,0,9.05-1.21c4.87,1.95,9.52,1.71,13.85-1.76-.56,8.3.94,14.6,4.47,19a11.19,11.19,0,0,1,1.93,3.66,37.15,37.15,0,0,1,1.39,7.05,7,7,0,0,0,.52,1.95l.74,1.72a.43.43,0,0,0,.78,0l1.71-3.7a.27.27,0,0,1,.5,0l.38,1.39a.45.45,0,0,0,.83.08l1-2a.45.45,0,0,1,.79,0l.47.74a.39.39,0,0,0,.72-.11l1.91-7.57a1.53,1.53,0,0,1,.77-1l1.78-.75a.14.14,0,0,0,.08-.13l-.27-9a15.8,15.8,0,0,1-1.2-6c-1.44-5.57-3.41-10.2-6.27-13.29a6.36,6.36,0,0,0-3.51-3.29c-8.82-11.64-22.35-14.78-39.65-11.09,0,0-.35-3.67-.44-3-.15,1.14-3.84,3.88-4.17,3.29-.88-.71-1.62-2.31-2.3-4.32a.17.17,0,0,0-.33,0c0,3.44-.77,6-2.75,7.13L624.65,114a.13.13,0,0,0-.26,0,36.24,36.24,0,0,1-2.51,7.88,66.88,66.88,0,0,0-7.58,10.65c-.28,1.13-.2,2,.44,2.31-3.82,3.78-6.64,8.31-6.53,15C607.49,155.4,608.64,161.32,610.46,167.36Z" transform="translate(0 -3.06)"/><path class="cls-50" d="M571.41,312.32C577,285,585,265.27,597.28,258.68c4.38-7.32,10.89-11.72,19-14,2-8.4,5.19-15.16,11.64-17.74l.55.28L635.67,238c.33,1.69.86,3.81,1.53,6.26a10.85,10.85,0,0,0,4.45,6.75c7.05-4.29,15-8.53,23.51-12.74a70.51,70.51,0,0,1,16.8-12c3.19-5.07,6.45-9.53,9.94-12,3,.62,6.47,2.36,10.05,4.5,3.33,2.59,4.67,6.46,4.37,11.38v82.23Z" transform="translate(0 -3.06)"/><path class="cls-51" d="M635.76,239.67c2.3,6.18,1.5,8.34,6.07,11.45l-9.48,5.79Z" transform="translate(0 -3.06)"/><path class="cls-52" d="M623.92,265l9.11,2.14c19.14-20.42,45-26.45,73.26-27.42-22.21-3.23-47.66,5-74.41,17.75C628.47,259.67,625.63,262.11,623.92,265Z" transform="translate(0 -3.06)"/><ellipse class="cls-52" cx="636.02" cy="256.89" rx="1.53" ry="1.13"/><ellipse class="cls-52" cx="626.51" cy="253.96" rx="1.12" ry="1.46"/><path class="cls-53" d="M627.12,256.91c-3.9,2.17-6.24,7.43-7.91,14l-1.83,12.23A110,110,0,0,1,613,301.35l-2.49,11-2.64.09,7-26.72a34.2,34.2,0,0,0,.86-4.58c1.89-16.4,5.51-24.54,10.52-26C626.91,255.69,627.39,256.3,627.12,256.91Z" transform="translate(0 -3.06)"/><path class="cls-54" d="M634.73,259.55c.8-.73,1.7-.77,2.78.29-2.49,3-4.34,10.21-6,18.67l-2.62,14.71c-.06.35-.13.69-.22,1l-4.56,18.07h-2.85c3.67-14,6.52-23,8-34,.13-1,.29-1.93.48-2.89C631.14,268.3,632.7,262.22,634.73,259.55Z" transform="translate(0 -3.06)"/></g><g id="Sean"><path class="cls-55" d="M744.2,214.49v25.44s49.65,2.47,49.73,2.17,1.29-23.27,1.29-23.27L776,193.54Z" transform="translate(0 -3.06)"/><path class="cls-56" d="M748.39,136,734,140.27l-7.87,31.87.68,14.71c.37,2.38,1.91,4.86,2.75,7.12,2.64,7.05,6.5,13.3,7.86,18.95a7.48,7.48,0,0,0,4.28,5.11c4.22,1.85,9.24.75,14.53-1.33A127.2,127.2,0,0,0,775,204.89a10.2,10.2,0,0,0,4-6.93l5.23-44.33L770.8,138.37C770.51,138,748.39,136,748.39,136Z" transform="translate(0 -3.06)"/><path class="cls-57" d="M731.89,167.77c4.41.13,7,2,8.66,4.67,1.88-1.69,4.15-1.5,6.69,0a3.69,3.69,0,0,1,2.06,0c1.52-4.68,15.36-3.14,16.23,1.35h1.25l3.88-1.27.61,1.87-4.81.75c2.38,11.05-10.32,15.11-16.1,6.73-1.57-2-2.43-4.64-1.75-8.83l-1.14.08c-3-1.18-5.28-1.36-6.46-.15,5.47,18.18-23.8,11.74-15.16-2.36A6.74,6.74,0,0,1,731.89,167.77Z" transform="translate(0 -3.06)"/><path class="cls-56" d="M726.34,170.62c3.24-3.63,11.63-2,13.53,2.27,1.45,3.82,1.75,7-.76,9.13C731.2,186.49,721.06,179,726.34,170.62Z" transform="translate(0 -3.06)"/><path class="cls-56" d="M751.28,171.29c3.41-1.59,10.24-.57,12.82,2a3.67,3.67,0,0,1,1,1.88c1.09,5-.17,8.39-4.22,9.91a7.73,7.73,0,0,1-6.11-.32c-4.25-2.1-6.87-6.51-5.24-11.47A3.34,3.34,0,0,1,751.28,171.29Z" transform="translate(0 -3.06)"/><path class="cls-58" d="M692.27,312.19l4.79-22.66c-3.44-40.43,10.6-65,46.76-69.58-16,35.77,33.14,39.95,56.34-.9L820,228.91v83.28Z" transform="translate(0 -3.06)"/><path class="cls-59" d="M818.17,255.42c-5.87,14.64-9.8,33.87-12.19,56.77,0,0,12.66.66,12.66,0S818.17,255.42,818.17,255.42Z" transform="translate(0 -3.06)"/><path class="cls-60" d="M700.39,251.94l4.33,10.32a335.16,335.16,0,0,1-4.38,49.93l-7.14,0A188.45,188.45,0,0,1,697.65,289C697.56,274.07,697,258,700.39,251.94Z" transform="translate(0 -3.06)"/><path class="cls-61" d="M744.2,221.42c2.07,15.06,16.52,18.89,34.69,12.28C760.36,243.83,733.26,248.41,744.2,221.42Z" transform="translate(0 -3.06)"/><path class="cls-62" d="M743.82,220c-21.32,28.51,30.4,48,56.68-.56L790.35,213C802.9,229.49,736.41,261.36,743.82,220Z" transform="translate(0 -3.06)"/><path class="cls-63" d="M743.82,220l.38,0a8.24,8.24,0,0,1,0,1.49c-4.76,19-.23,46.44,7.17,62.38,11-11.91,18.63-25.84,24.23-40.86a10.68,10.68,0,0,1,.69-1.5c7.1-12.77,12.28-24.21,10.89-26.43l1.25-1.13c.29,4.38-1.11,8.76-3.53,13.13l-4.37,8.94-2.7,4.7a18.71,18.71,0,0,0-1.62,3.63c-5.12,15.63-18,36.43-24.46,40.79.23.63.26,1.16-.18,1.54v2.8h2l.06,1.49h-2.14l-.26,5.86h-1.56l.25-6.09-2.19,0,0-1.43,2.37.08,0-2.83a1.86,1.86,0,0,1,.26-1.49c-5.68-11.36-8.76-24.24-8.75-38.93A85.9,85.9,0,0,1,743.82,220Z" transform="translate(0 -3.06)"/><path class="cls-64" d="M735,205.84c-1.12-1.25-2.81-1.06-5.07.59l.22-5.44c-9.14-3.83-18-7.82-18.44-16.06-.73-3.62-.88-6.42-.43-8.41,2.53-.72,4.33-2.36,4.68-5.9,1.47-3.47,3.21-6.44,5.53-8.29,4.74-24.58,18.34-38.3,45.44-35.47,11.16-.56,19.48,5.5,24.81,18.58a60.63,60.63,0,0,1,3.14,17.39c4.59,9.49,5.59,18.13,1.48,25.59,4,11.24,2.21,16.05-3.82,16.05l-.23,4.71c1.44.68,1.78,2,1.66,3.58a3.94,3.94,0,0,1-2.13,3.2L789,217.43a9.63,9.63,0,0,1-9.43-.34c-4.27-2.64-6-6.66-5.23-12-10.05-3.82-12.27-14.34-7.55-30.81-3.13-12.43-4.72-22.91-2.95-29.16-3.2-6.76-7.54-7.26-12.94-1.89-4.68-4.66-9.11-4.49-13.23,1.5-2.21,3.59-3.31,11.94-4.4,20.35a26.37,26.37,0,0,1-5.71,11.74C726.38,184.31,730.17,194.75,735,205.84Z" transform="translate(0 -3.06)"/></g></svg>