<svg id="Layer_1" data-name="Layer 1" xmlns="http://www.w3.org/2000/svg" viewBox="0 0 1042.33 705.44"><defs><style>.cls-1{fill:#eaf3fa;}.cls-2{fill:#8581f6;}.cls-3{fill:#fff;}</style></defs><path class="cls-1" d="M339.55,736.72c-97,0-178.28-73.54-187.55-170-11.55-120.12,1-215.85,40.49-284.41,54.2-94.19,159.14-137.08,322-121.44l.32,0C589.28,178.33,650.84,146.8,705,87.28a1.06,1.06,0,0,1,.15-.15C860.6-57.77,1179.49,96.58,1154,351.56a2,2,0,0,1,0,.24c-21.07,107.42-6,203,29.31,292a93.16,93.16,0,0,1,5.16,17.52c4.56,25-2.47,42.83-16.61,56.21a71.78,71.78,0,0,1-49.38,19.23Z" transform="translate(-147.89 -31.28)"/><path class="cls-2" d="M1155.35,332.06h-48.56v27.87h-41v27.3H991.9V276.32H947.54L947,387.23H935l.57-44.37H887.82v42.66H808.76V342.86H776.9L776.05,384h-63.7l.85-104.27H646.65L647.22,381h-29l-.57-49.48H538.59L538,381h-58.4l.57-90.43H444.36v36h-4.93V283H402.27V378.7H355.06V242.76H305l1.14,135.94H270.31l-1.13-50.81H235.62V381H214V285l-21.51-2.76c-42.1,71.11-50.87,169.06-39.06,286.35C163,664,243.12,736.72,339,736.72h775.19a83.72,83.72,0,0,0,57-22.12c40.17-37.26,8-63.86-15.8-162.08C1138.08,487.33,1142.06,426.47,1155.35,332.06Z" transform="translate(-147.89 -31.28)"/><path class="cls-3" d="M540.86,240.29H675.29c-10.24-12.54-28.81-18.64-61.25-14C580.67,205.9,557.5,214,540.86,240.29Z" transform="translate(-147.89 -31.28)"/><path class="cls-3" d="M872.53,176H1007c-10.24-12.54-28.81-18.64-61.25-14C912.34,141.63,889.17,149.72,872.53,176Z" transform="translate(-147.89 -31.28)"/><path class="cls-3" d="M724.26,124.06h169.5C889,105.7,866.84,98,816.4,107.75c-21.8-13.92-43.18-18.92-63.32,2.66C733,106.7,725.79,113.15,724.26,124.06Z" transform="translate(-147.89 -31.28)"/><rect class="cls-1" x="43.47" y="311.11" width="7.83" height="17.7"/><rect class="cls-1" x="456.96" y="305.26" width="6.45" height="16.28"/><rect class="cls-1" x="163.56" y="285.25" width="6.45" height="16.28"/><rect class="cls-1" x="261.77" y="260.6" width="6.45" height="16.28"/><rect class="cls-1" x="193.14" y="237.1" width="6.45" height="16.28"/><rect class="cls-1" x="318.65" y="295.49" width="6.45" height="16.28"/><rect class="cls-1" x="405.86" y="319.38" width="6.45" height="16.28"/><rect class="cls-1" x="507.1" y="260.23" width="6.45" height="16.28"/><rect class="cls-1" x="524.18" y="260.23" width="6.45" height="16.28"/><rect class="cls-1" x="649.68" y="324.31" width="6.45" height="16.28"/><rect class="cls-1" x="773.67" y="321.54" width="6.45" height="16.28"/><rect class="cls-1" x="806.66" y="293.39" width="6.45" height="16.28"/><rect class="cls-1" x="831.69" y="253.95" width="6.45" height="16.28"/><rect class="cls-1" x="922.22" y="334.69" width="6.45" height="16.28"/><rect class="cls-1" x="971.04" y="318.41" width="6.45" height="16.28"/><rect class="cls-1" x="57.77" y="275.76" width="5.11" height="14.64"/><rect class="cls-1" x="114.62" y="308.77" width="5.11" height="12.6"/></svg>