<svg xmlns="http://www.w3.org/2000/svg" viewBox="0 0 410.47 118.76"><defs><style>.cls-1,.cls-2{fill:#fff;}.cls-2{font-size:44.27px;font-family:OpenSans-Light, Open Sans;font-weight:300;}</style></defs><g id="Layer_2" data-name="Layer 2"><g id="Layer_1-2" data-name="Layer 1"><rect class="cls-1" x="353.32" y="19.08" width="39.96" height="11.59"/><rect class="cls-1" x="353.32" y="0.01" width="57.15" height="11.55"/><rect class="cls-1" x="353.32" y="39.01" width="57.15" height="11.83"/><path class="cls-1" d="M61.14,18.28a26.28,26.28,0,0,0-2.26-5.51,16.49,16.49,0,0,0-4.55-5,38.36,38.36,0,0,0-7.16-4A40.83,40.83,0,0,0,36.75,1a91.89,91.89,0,0,0-14-1h-18V12h16.7q22.28,0,22.26,13v.4q0,13.11-22.26,13.12H4.71V50.84H22.82a77,77,0,0,0,16.46-1.57,40.32,40.32,0,0,0,11.31-4,23.08,23.08,0,0,0,6.84-5.8,19.49,19.49,0,0,0,3.5-6.6,24.35,24.35,0,0,0,.93-6.8V24A22.22,22.22,0,0,0,61.14,18.28Z"/><path class="cls-1" d="M212.53.12V11.61H172.72v7.48h22.76V30.65H172.72V50.71h-17.2V.12Z"/><path class="cls-1" d="M247.07,50.71H229.8V19.09h17.27Z"/><path class="cls-1" d="M283.67.06,319,32V.06h17.09V50.77H319l-37.52-33.6v33.6H264.35V.06Z"/><polygon class="cls-1" points="138.25 0 138.25 11.55 96.25 11.55 96.25 19.06 119.08 19.06 119.08 30.67 96.25 30.67 96.25 39.01 138.25 39.01 138.25 50.83 79.12 50.83 79.12 0 138.25 0"/><rect class="cls-1" x="229.8" y="0.12" width="17.27" height="11.49"/><text class="cls-2" transform="translate(0 106.85)">dit digitale udtryk</text></g></g></svg>