<?xml version="1.0" encoding="utf-8"?>
<!-- Generator: Adobe Illustrator 19.0.0, SVG Export Plug-In . SVG Version: 6.00 Build 0)  -->
<svg version="1.1" id="Layer_1" xmlns="http://www.w3.org/2000/svg" xmlns:xlink="http://www.w3.org/1999/xlink" x="0px" y="0px"
	 viewBox="-668 418.3 62.3 65.7" style="enable-background:new -668 418.3 62.3 65.7;" xml:space="preserve">
<style type="text/css">
	.st0{fill:none;stroke:#FFFFFF;stroke-miterlimit:10;}
	.st1{fill:#FFFFFF;}
</style>
<g id="Layer_2">
	<g id="Layer_1-2">
		<path class="st0" d="M-616.6,453.7l-7.7,6.4v-6.4h-12c-3.4,0-6.1-2.8-6.1-6.2v-22.6c0-3.4,2.8-6.2,6.1-6.2c0,0,0,0,0,0h23.9
			c3.4,0,6.2,2.8,6.2,6.1c0,0,0,0,0,0v22.6c0,3.4-2.8,6.2-6.2,6.2l0,0H-616.6z"/>
		<path class="st0" d="M-631.8,479.4l-4.3,3.5v-3.5h-6.6c-1.9,0-3.4-1.5-3.4-3.4v-12.5c0-1.9,1.5-3.4,3.4-3.4c0,0,0,0,0,0h13.2
			c1.9,0,3.4,1.5,3.4,3.4c0,0,0,0,0,0V476c0,1.9-1.5,3.4-3.4,3.4L-631.8,479.4z"/>
		<path class="st0" d="M-639.5,460.1c0.1-0.4,0.2-0.8,0.2-1.2v-17.6c0-2.6-2.1-4.8-4.8-4.8h-18.6c-2.6,0-4.8,2.1-4.8,4.8
			c0,0,0,0,0,0v17.6c0,2.6,2.1,4.8,4.8,4.8c0,0,0,0,0,0h9.3v5l6-5h1.4"/>
		<line class="st0" x1="-660.5" y1="448.3" x2="-646.1" y2="448.3"/>
		<line class="st0" x1="-660.5" y1="452.7" x2="-646.1" y2="452.7"/>
		<line class="st0" x1="-656.8" y1="457.7" x2="-654.2" y2="443.3"/>
		<line class="st0" x1="-652.6" y1="457.7" x2="-650" y2="443.3"/>
		<path id="regular_thumbs-up" class="st1" d="M-614.2,439.1c0.6,1.1,0.2,2.4-0.7,3.1c0.4,2.6-0.9,3.5-2.8,3.5h-2
			c-3.8,0-6.3-2-9.1-2v-9.9h0.6c1.5,0,3.6-3.8,5-5.2c1.4-1.4,1-4,2-5c2.5,0,2.5,1.8,2.5,3c0,2.1-1.5,3-1.5,5h5.5c1.1,0,2,0.9,2,2
			c0,1-0.7,2-1.2,2C-613.1,436.7-613.2,438.2-614.2,439.1L-614.2,439.1z"/>
		<rect x="-633" y="434.7" class="st0" width="3.8" height="8.1"/>
		<path id="solid_heart" class="st1" d="M-632,466.1c-1.1-0.9-2.8-0.8-3.7,0.3l-0.4,0.4l-0.4-0.4c-1-1.1-2.6-1.2-3.7-0.3
			c-1.2,1-1.3,2.9-0.3,4.1l0.1,0.1l3.9,4c0.2,0.2,0.6,0.3,0.9,0c0,0,0,0,0,0l0,0l3.9-4c1.1-1.1,1.1-2.9-0.1-4c0,0,0,0,0,0
			L-632,466.1z"/>
	</g>
</g>
</svg>
