<?xml version="1.0" encoding="utf-8"?>
<!-- Generator: Adobe Illustrator 19.0.0, SVG Export Plug-In . SVG Version: 6.00 Build 0)  -->
<svg version="1.1" id="Layer_1" xmlns="http://www.w3.org/2000/svg" xmlns:xlink="http://www.w3.org/1999/xlink" x="0px" y="0px"
	 viewBox="-663 411.8 72.8 79.2" style="enable-background:new -663 411.8 72.8 79.2;" xml:space="preserve">
<style type="text/css">
	.st0{fill:none;stroke:#FFFFFF;stroke-miterlimit:10;}
	.st1{fill:#FFFFFF;}
	.st2{font-family:'ArialMT';}
	.st3{font-size:24.4px;}
</style>
<g id="Layer_2">
	<g id="Layer_1-2">
		<path class="st0" d="M-630.2,426.9h34.7c2.6,0,4.8,2.1,4.8,4.8l0,0V471c0,2.6-2.1,4.8-4.7,4.8c0,0,0,0,0,0h-62.3
			c-2.6,0-4.8-2.1-4.8-4.8c0,0,0,0,0,0v-39.3c0-2.3,1.6-4.2,3.8-4.7"/>
		<line class="st0" x1="-662.5" y1="464.6" x2="-590.7" y2="464.6"/>
		<rect x="-636.6" y="475.7" class="st0" width="20.2" height="8.7"/>
		<path class="st0" d="M-644.1,490.5h34.9v-3.1c0-1.5-1.2-2.7-2.7-2.7h-29.5c-1.5,0-2.7,1.2-2.7,2.7V490.5z"/>
		<path id="solid_cog" class="st1" d="M-630.5,429.8l-2.5-1.4c0.3-1.4,0.3-2.8,0-4.1l2.5-1.5c0.3-0.2,0.4-0.5,0.3-0.8
			c-0.6-2.1-1.7-4-3.2-5.5c-0.2-0.2-0.6-0.3-0.9-0.1l-2.5,1.5c-1.1-0.9-2.3-1.6-3.6-2.1v-2.9c0-0.3-0.2-0.6-0.6-0.6
			c-2.1-0.5-4.3-0.5-6.4,0c-0.3,0.1-0.5,0.4-0.5,0.7v2.9c-1.3,0.5-2.5,1.2-3.6,2.1l-2.5-1.5c-0.3-0.2-0.6-0.1-0.9,0.1
			c-1.5,1.6-2.6,3.5-3.2,5.5c-0.1,0.3,0,0.7,0.3,0.8l2.5,1.4c-0.2,1.4-0.2,2.8,0,4.1l-2.5,1.4c-0.3,0.2-0.4,0.5-0.3,0.8
			c0.6,2.1,1.7,4,3.2,5.5c0.2,0.2,0.6,0.3,0.9,0.1l2.5-1.4c1,0.9,2.3,1.6,3.6,2.1v2.9c0,0.3,0.2,0.6,0.6,0.7c2.1,0.5,4.3,0.5,6.4,0
			c0.3-0.1,0.5-0.4,0.5-0.7v-2.9c1.3-0.5,2.5-1.2,3.6-2.1l2.5,1.4c0.3,0.2,0.6,0.1,0.9-0.1c1.5-1.6,2.6-3.5,3.2-5.5
			C-630.1,430.3-630.3,429.9-630.5,429.8z M-644.1,431c-2.6,0-4.7-2.1-4.7-4.7s2.1-4.7,4.7-4.7s4.7,2.1,4.7,4.7l0,0
			C-639.4,428.9-641.5,431-644.1,431L-644.1,431z"/>
		<text transform="matrix(1 0 0 1 -642.52 457.23)" class="st1 st2 st3">&lt;/&gt;</text>
	</g>
</g>
</svg>
